%TF.GenerationSoftware,Altium Limited,Altium Designer,18.1.9 (240)*%
G04 Layer_Color=16711935*
%FSLAX26Y26*%
%MOIN*%
%TF.FileFunction,Soldermask,Bot*%
%TF.Part,Single*%
G01*
G75*
%TA.AperFunction,NonConductor*%
%ADD21R,0.113860X0.033150*%
%ADD22R,0.113860X0.033160*%
%TA.AperFunction,SMDPad,CuDef*%
%ADD23C,0.128000*%
%ADD24R,0.117840X0.037130*%
%TA.AperFunction,ComponentPad*%
%ADD25C,0.128000*%
%TA.AperFunction,ViaPad*%
%ADD26C,0.058000*%
%ADD27C,0.165480*%
D21*
X-240118Y64050D02*
D03*
X-80118D02*
D03*
X-240118Y114050D02*
D03*
X-80118D02*
D03*
X-240118Y214060D02*
D03*
X-80118D02*
D03*
X-240118Y264060D02*
D03*
X-80118D02*
D03*
X83122Y-270951D02*
D03*
X243122D02*
D03*
X83122Y-220951D02*
D03*
X243122D02*
D03*
X83122Y-120941D02*
D03*
X243122D02*
D03*
X83122Y-70941D02*
D03*
X243122D02*
D03*
D22*
X-240118Y164055D02*
D03*
X-80118D02*
D03*
X83122Y-170946D02*
D03*
X243122D02*
D03*
D23*
X-530000Y-530000D02*
D03*
D24*
X-240118Y64055D02*
D03*
X-80118D02*
D03*
X-240118Y114055D02*
D03*
X-80118D02*
D03*
X-240118Y164055D02*
D03*
X-80118D02*
D03*
X-240118Y214055D02*
D03*
X-80118D02*
D03*
X-240118Y264055D02*
D03*
X-80118D02*
D03*
X83122Y-270945D02*
D03*
X243122D02*
D03*
X83122Y-220945D02*
D03*
X243122D02*
D03*
X83122Y-170945D02*
D03*
X243122D02*
D03*
X83122Y-120945D02*
D03*
X243122D02*
D03*
X83122Y-70945D02*
D03*
X243122D02*
D03*
D25*
X724000Y194000D02*
D03*
X-724000Y-194000D02*
D03*
X750000Y0D02*
D03*
X-750000D02*
D03*
X724000Y-194000D02*
D03*
X375000Y649500D02*
D03*
X194000Y724000D02*
D03*
X0Y750000D02*
D03*
X-194000Y724000D02*
D03*
X-375000Y649500D02*
D03*
X-530000Y530000D02*
D03*
X-649500Y375000D02*
D03*
X-724000Y194000D02*
D03*
X530000Y530000D02*
D03*
X650000Y375000D02*
D03*
D26*
X-170000Y-360000D02*
D03*
X-105000D02*
D03*
X-40000D02*
D03*
D27*
X0Y-750000D02*
D03*
X650000Y-375000D02*
D03*
X-649500D02*
D03*
%TF.MD5,3710c181dc1f7f91c1bcc26cd83c13c1*%
M02*
