%TF.GenerationSoftware,Altium Limited,Altium Designer,18.1.9 (240)*%
G04 Layer_Color=128*
%FSLAX26Y26*%
%MOIN*%
%TF.FileFunction,Paste,Bot*%
%TF.Part,Single*%
G01*
G75*
%TA.AperFunction,SMDPad,CuDef*%
%ADD10C,0.120000*%
%ADD17R,0.109840X0.029130*%
%TA.AperFunction,NonConductor*%
%ADD28R,0.109840X0.029140*%
D10*
X-530000Y-530000D02*
D03*
D17*
X-240118Y64055D02*
D03*
X-80118D02*
D03*
X-240118Y114055D02*
D03*
X-80118D02*
D03*
X-240118Y164055D02*
D03*
X-80118D02*
D03*
X-240118Y214055D02*
D03*
X-80118D02*
D03*
X-240118Y264055D02*
D03*
X-80118D02*
D03*
X83122Y-270945D02*
D03*
X243122D02*
D03*
X83122Y-220945D02*
D03*
X243122D02*
D03*
X83122Y-170945D02*
D03*
X243122D02*
D03*
X83122Y-120945D02*
D03*
X243122D02*
D03*
X83122Y-70945D02*
D03*
X243122D02*
D03*
D28*
X-240118Y64055D02*
D03*
X-80118D02*
D03*
X-240118Y114055D02*
D03*
X-80118D02*
D03*
X-240118Y164055D02*
D03*
X-80118D02*
D03*
X-240118Y214055D02*
D03*
X-80118D02*
D03*
X-240118Y264055D02*
D03*
X-80118D02*
D03*
X83122Y-270946D02*
D03*
X243122D02*
D03*
X83122Y-220946D02*
D03*
X243122D02*
D03*
X83122Y-170946D02*
D03*
X243122D02*
D03*
X83122Y-120946D02*
D03*
X243122D02*
D03*
X83122Y-70946D02*
D03*
X243122D02*
D03*
%TF.MD5,f5481350b94b62721cfc9189396c9a9d*%
M02*
