%TF.GenerationSoftware,Altium Limited,Altium Designer,18.1.9 (240)*%
G04 Layer_Color=2752767*
%FSLAX26Y26*%
%MOIN*%
%TF.FileFunction,Drawing*%
%TF.Part,Single*%
G01*
G75*
%TA.AperFunction,NonConductor*%
%ADD35C,0.005000*%
%ADD36C,0.006667*%
D35*
X704000Y174000D02*
Y214000D01*
X744000D01*
Y174000D01*
X704000D01*
X-744000Y-214000D02*
Y-174000D01*
X-704000D01*
Y-214000D01*
X-744000D01*
X730000Y-20000D02*
Y20000D01*
X770000D01*
Y-20000D01*
X730000D01*
X-770000D02*
Y20000D01*
X-730000D01*
Y-20000D01*
X-770000D01*
X704000Y-214000D02*
Y-174000D01*
X744000D01*
Y-214000D01*
X704000D01*
X355000Y629500D02*
Y669500D01*
X395000D01*
Y629500D01*
X355000D01*
X174000Y704000D02*
Y744000D01*
X214000D01*
Y704000D01*
X174000D01*
X-20000Y730000D02*
Y770000D01*
X20000D01*
Y730000D01*
X-20000D01*
X-214000Y704000D02*
Y744000D01*
X-174000D01*
Y704000D01*
X-214000D01*
X-395000Y629500D02*
Y669500D01*
X-355000D01*
Y629500D01*
X-395000D01*
X-550000Y510000D02*
Y550000D01*
X-510000D01*
Y510000D01*
X-550000D01*
X-669500Y355000D02*
Y395000D01*
X-629500D01*
Y355000D01*
X-669500D01*
X-744000Y174000D02*
Y214000D01*
X-704000D01*
Y174000D01*
X-744000D01*
X510000Y510000D02*
Y550000D01*
X550000D01*
Y510000D01*
X510000D01*
X630000Y355000D02*
Y395000D01*
X670000D01*
Y355000D01*
X630000D01*
X0Y-770000D02*
X-20000Y-730000D01*
X20000D01*
X0Y-770000D01*
X650000Y-395000D02*
X630000Y-355000D01*
X670000D01*
X650000Y-395000D01*
X-649500D02*
X-669500Y-355000D01*
X-629500D01*
X-649500Y-395000D01*
D36*
X-150000Y-360000D02*
G03*
X-150000Y-360000I-20000J0D01*
G01*
X-85000D02*
G03*
X-85000Y-360000I-20000J0D01*
G01*
X-20000D02*
G03*
X-20000Y-360000I-20000J0D01*
G01*
%TF.MD5,a9af2d6739069ffb42c5de8050e4ea78*%
M02*
