G04*
G04 #@! TF.GenerationSoftware,Altium Limited,Altium Designer,18.1.11 (251)*
G04*
G04 Layer_Physical_Order=2*
G04 Layer_Color=16711680*
%FSLAX25Y25*%
%MOIN*%
G70*
G01*
G75*
%ADD10C,0.01000*%
%ADD12C,0.12000*%
%ADD17C,0.05000*%
%ADD18C,0.02500*%
%ADD19C,0.05000*%
%ADD20C,0.15748*%
G36*
X-32500Y14500D02*
X-55500Y-8500D01*
X-101000D01*
Y10000D01*
X-69000D01*
X-61500Y17500D01*
X-55000D01*
X-49500Y23000D01*
X-32500D01*
Y14500D01*
D02*
G37*
G36*
X-13000Y-4500D02*
X-13000Y-20998D01*
X-19094Y-27100D01*
X-101000D01*
Y-11000D01*
X-55000D01*
X-48367Y-4500D01*
X-13000Y-4500D01*
D02*
G37*
G36*
X103500Y-8500D02*
X65500D01*
X52436Y-18980D01*
X38477D01*
X38477Y-3023D01*
X52500Y11000D01*
X103500D01*
Y-8500D01*
D02*
G37*
G36*
Y-27095D02*
X61905Y-27095D01*
X39500Y-49500D01*
X15576D01*
X15358Y-49050D01*
X38477Y-20000D01*
X53500D01*
X65722Y-10000D01*
X103500D01*
Y-27095D01*
D02*
G37*
D10*
X0Y42085D02*
X121Y41964D01*
X19400Y72400D02*
X19500Y72300D01*
Y47500D02*
Y72300D01*
X-10500Y-36000D02*
Y-29500D01*
X53000Y34000D01*
Y53000D01*
X26891Y42500D02*
Y54341D01*
X37500Y64950D01*
X0Y42085D02*
Y75000D01*
X-19400Y40900D02*
X-19000Y40500D01*
X-37500D02*
Y64950D01*
X-58100Y19400D02*
X-52000Y25500D01*
X-72400Y19400D02*
X-58100D01*
X-64950Y30950D02*
X-61000Y27000D01*
X-64950Y30950D02*
Y37500D01*
X-53000Y40000D02*
Y53000D01*
X121Y41964D02*
X157Y42000D01*
X-52000Y25500D02*
X-51689D01*
X-50689Y26500D01*
X-50595Y26406D01*
X-10500Y-36000D02*
X-10000Y-35500D01*
D12*
X-75000Y0D02*
D03*
X-72400Y-19400D02*
D03*
X72400D02*
D03*
X75000Y0D02*
D03*
X72400Y19400D02*
D03*
X65000Y37500D02*
D03*
X53000Y53000D02*
D03*
X37500Y64950D02*
D03*
X19400Y72400D02*
D03*
X0Y75000D02*
D03*
X-19400Y72400D02*
D03*
X-37500Y64950D02*
D03*
X-53000Y53000D02*
D03*
X-64950Y37500D02*
D03*
X-72400Y19400D02*
D03*
X-53000Y-53000D02*
D03*
D17*
X-52500Y-52500D01*
X-33500D01*
X-17000Y-36000D01*
X-4000D02*
Y-30515D01*
X64015Y37500D01*
X65000D01*
X54400Y19400D02*
X72400D01*
X36500Y1500D02*
X54400Y19400D01*
D18*
X-19400Y40900D02*
Y72400D01*
D19*
X19500Y47500D02*
D03*
X36500Y1500D02*
D03*
X57500Y-4000D02*
D03*
X49000D02*
D03*
Y3000D02*
D03*
X26891Y42500D02*
D03*
X157Y42000D02*
D03*
X-19000Y40500D02*
D03*
X-37500D02*
D03*
X-53000Y40000D02*
D03*
X-61000Y27000D02*
D03*
X-52000Y25500D02*
D03*
X99500Y7000D02*
D03*
Y1000D02*
D03*
X85500Y7000D02*
D03*
X92500Y1000D02*
D03*
X85500D02*
D03*
X92500Y7000D02*
D03*
X85000Y-14000D02*
D03*
Y-20000D02*
D03*
X99500Y-14000D02*
D03*
X92500Y-20000D02*
D03*
X99500D02*
D03*
X92500Y-14000D02*
D03*
X49500Y-26500D02*
D03*
X42500Y-32500D02*
D03*
X49500D02*
D03*
X42500Y-26500D02*
D03*
X57500Y3000D02*
D03*
X50000Y-15400D02*
D03*
X41500Y-15492D02*
D03*
X29000Y-38500D02*
D03*
X36000Y-44500D02*
D03*
X29000D02*
D03*
X36000Y-38500D02*
D03*
X-96500Y-22500D02*
D03*
Y-15500D02*
D03*
X-51500Y-22302D02*
D03*
X-51265Y-15000D02*
D03*
X-37500D02*
D03*
Y-22302D02*
D03*
X-27000Y-22092D02*
D03*
X-18500Y-22000D02*
D03*
Y-15000D02*
D03*
X-27000D02*
D03*
X-44500D02*
D03*
Y-22302D02*
D03*
X-96500Y-4500D02*
D03*
Y5500D02*
D03*
X-57000Y3000D02*
D03*
X-49500Y3500D02*
D03*
X-49500Y12000D02*
D03*
X-41500D02*
D03*
X-45500Y19400D02*
D03*
X-37500D02*
D03*
X-4000Y-36000D02*
D03*
X-10500D02*
D03*
X-17000D02*
D03*
D20*
X-64950Y-37500D02*
D03*
X65000D02*
D03*
X0Y-75000D02*
D03*
M02*
