%TF.GenerationSoftware,Altium Limited,Altium Designer,18.1.9 (240)*%
G04 Layer_Color=128*
%FSLAX26Y26*%
%MOIN*%
%TF.FileFunction,Drillmap*%
%TF.Part,Single*%
G01*
G75*
%TA.AperFunction,NonConductor*%
%ADD35C,0.005000*%
D35*
X679000Y194000D02*
X769000D01*
X724000Y149000D02*
Y239000D01*
X-769000Y-194000D02*
X-679000D01*
X-724000Y-239000D02*
Y-149000D01*
X705000Y0D02*
X795000D01*
X750000Y-45000D02*
Y45000D01*
X-795000Y0D02*
X-705000D01*
X-750000Y-45000D02*
Y45000D01*
X679000Y-194000D02*
X769000D01*
X724000Y-239000D02*
Y-149000D01*
X330000Y649500D02*
X420000D01*
X375000Y604500D02*
Y694500D01*
X149000Y724000D02*
X239000D01*
X194000Y679000D02*
Y769000D01*
X-45000Y750000D02*
X45000D01*
X0Y705000D02*
Y795000D01*
X-239000Y724000D02*
X-149000D01*
X-194000Y679000D02*
Y769000D01*
X-420000Y649500D02*
X-330000D01*
X-375000Y604500D02*
Y694500D01*
X-575000Y530000D02*
X-485000D01*
X-530000Y485000D02*
Y575000D01*
X-694500Y375000D02*
X-604500D01*
X-649500Y330000D02*
Y420000D01*
X-769000Y194000D02*
X-679000D01*
X-724000Y149000D02*
Y239000D01*
X485000Y530000D02*
X575000D01*
X530000Y485000D02*
Y575000D01*
X605000Y375000D02*
X695000D01*
X650000Y330000D02*
Y420000D01*
X-184000Y-360000D02*
X-156000D01*
X-170000Y-374000D02*
Y-346000D01*
X-119000Y-360000D02*
X-91000D01*
X-105000Y-374000D02*
Y-346000D01*
X-54000Y-360000D02*
X-26000D01*
X-40000Y-374000D02*
Y-346000D01*
X-61024Y-750000D02*
X61024D01*
X0Y-811024D02*
Y-688976D01*
X588976Y-375000D02*
X711024D01*
X650000Y-436024D02*
Y-313976D01*
X-710524Y-375000D02*
X-588476D01*
X-649500Y-436024D02*
Y-313976D01*
%TF.MD5,9c0cdeeadb9b2c28c689fda4dbb386c0*%
M02*
