%TF.GenerationSoftware,Altium Limited,Altium Designer,18.1.9 (240)*%
G04 Layer_Color=32896*
%FSLAX26Y26*%
%MOIN*%
%TF.FileFunction,Legend,Bot*%
%TF.Part,Single*%
G01*
G75*
%TA.AperFunction,NonConductor*%
%ADD19C,0.007870*%
%ADD20C,0.010000*%
G36*
X-222321Y-19696D02*
X-222940Y-20006D01*
X-223521Y-20392D01*
X-224721Y-21205D01*
X-225843Y-22095D01*
X-226849Y-22985D01*
X-227314Y-23411D01*
X-227739Y-23798D01*
X-228088Y-24185D01*
X-228397Y-24495D01*
X-228629Y-24766D01*
X-228823Y-24959D01*
X-228939Y-25075D01*
X-228978Y-25114D01*
X-230216Y-26584D01*
X-231338Y-28094D01*
X-232306Y-29603D01*
X-232770Y-30300D01*
X-233157Y-30996D01*
X-233506Y-31616D01*
X-233854Y-32196D01*
X-234125Y-32699D01*
X-234357Y-33163D01*
X-234550Y-33512D01*
X-234667Y-33783D01*
X-234744Y-33938D01*
X-234783Y-34015D01*
X-240665D01*
X-240239Y-32931D01*
X-239736Y-31809D01*
X-239194Y-30764D01*
X-238691Y-29758D01*
X-238459Y-29332D01*
X-238227Y-28907D01*
X-238033Y-28558D01*
X-237879Y-28210D01*
X-237724Y-27978D01*
X-237608Y-27784D01*
X-237569Y-27668D01*
X-237530Y-27629D01*
X-236756Y-26352D01*
X-235982Y-25191D01*
X-235634Y-24688D01*
X-235286Y-24224D01*
X-234976Y-23759D01*
X-234667Y-23372D01*
X-234357Y-23024D01*
X-234125Y-22715D01*
X-233893Y-22444D01*
X-233699Y-22211D01*
X-233544Y-22057D01*
X-233428Y-21941D01*
X-233389Y-21863D01*
X-233351Y-21824D01*
X-272128D01*
Y-15748D01*
X-222321D01*
Y-19696D01*
D02*
G37*
G36*
X-92264Y-25462D02*
X-91645Y-25075D01*
X-91065Y-24649D01*
X-90523Y-24224D01*
X-90020Y-23798D01*
X-89594Y-23450D01*
X-89284Y-23179D01*
X-89091Y-22985D01*
X-89014Y-22908D01*
X-88665Y-22560D01*
X-88278Y-22173D01*
X-87814Y-21670D01*
X-87350Y-21166D01*
X-86305Y-20006D01*
X-85260Y-18806D01*
X-84757Y-18225D01*
X-84292Y-17683D01*
X-83867Y-17180D01*
X-83480Y-16755D01*
X-83170Y-16368D01*
X-82938Y-16097D01*
X-82783Y-15942D01*
X-82744Y-15865D01*
X-81738Y-14665D01*
X-80770Y-13581D01*
X-79880Y-12536D01*
X-79029Y-11608D01*
X-78255Y-10756D01*
X-77520Y-9982D01*
X-76862Y-9324D01*
X-76281Y-8705D01*
X-75740Y-8163D01*
X-75314Y-7699D01*
X-74888Y-7312D01*
X-74579Y-7002D01*
X-74308Y-6770D01*
X-74153Y-6577D01*
X-74037Y-6499D01*
X-73998Y-6460D01*
X-72837Y-5493D01*
X-71715Y-4642D01*
X-70709Y-3945D01*
X-69780Y-3403D01*
X-69393Y-3171D01*
X-69044Y-2978D01*
X-68735Y-2784D01*
X-68464Y-2668D01*
X-68232Y-2552D01*
X-68077Y-2474D01*
X-67999Y-2436D01*
X-67961D01*
X-66877Y-2010D01*
X-65832Y-1700D01*
X-64826Y-1507D01*
X-63936Y-1352D01*
X-63549Y-1313D01*
X-63162Y-1275D01*
X-62852Y-1236D01*
X-62581Y-1197D01*
X-62388D01*
X-62194D01*
X-62117D01*
X-62078D01*
X-60995Y-1236D01*
X-59989Y-1391D01*
X-59021Y-1584D01*
X-58092Y-1855D01*
X-57202Y-2165D01*
X-56428Y-2513D01*
X-55654Y-2900D01*
X-54996Y-3287D01*
X-54377Y-3674D01*
X-53835Y-4061D01*
X-53371Y-4409D01*
X-52984Y-4719D01*
X-52674Y-4990D01*
X-52481Y-5183D01*
X-52326Y-5338D01*
X-52287Y-5377D01*
X-51591Y-6190D01*
X-50971Y-7080D01*
X-50430Y-7970D01*
X-49965Y-8899D01*
X-49578Y-9866D01*
X-49269Y-10795D01*
X-48998Y-11724D01*
X-48804Y-12575D01*
X-48650Y-13427D01*
X-48495Y-14200D01*
X-48417Y-14897D01*
X-48379Y-15516D01*
X-48340Y-15981D01*
X-48301Y-16368D01*
Y-16677D01*
X-48340Y-17954D01*
X-48456Y-19193D01*
X-48650Y-20354D01*
X-48882Y-21437D01*
X-49153Y-22444D01*
X-49462Y-23372D01*
X-49810Y-24224D01*
X-50120Y-24998D01*
X-50468Y-25656D01*
X-50817Y-26275D01*
X-51126Y-26778D01*
X-51397Y-27204D01*
X-51629Y-27552D01*
X-51823Y-27784D01*
X-51939Y-27939D01*
X-51978Y-27978D01*
X-52713Y-28713D01*
X-53487Y-29371D01*
X-54338Y-29990D01*
X-55190Y-30493D01*
X-56080Y-30958D01*
X-56970Y-31345D01*
X-57860Y-31654D01*
X-58712Y-31925D01*
X-59486Y-32157D01*
X-60260Y-32351D01*
X-60917Y-32506D01*
X-61498Y-32622D01*
X-62001Y-32699D01*
X-62349Y-32738D01*
X-62581Y-32776D01*
X-62620D01*
X-62659D01*
X-63317Y-26507D01*
X-62465Y-26468D01*
X-61653Y-26391D01*
X-60917Y-26275D01*
X-60182Y-26081D01*
X-59563Y-25888D01*
X-58944Y-25656D01*
X-58402Y-25424D01*
X-57899Y-25191D01*
X-57473Y-24959D01*
X-57086Y-24688D01*
X-56738Y-24495D01*
X-56467Y-24301D01*
X-56273Y-24108D01*
X-56119Y-23992D01*
X-56041Y-23914D01*
X-56002Y-23875D01*
X-55538Y-23372D01*
X-55112Y-22792D01*
X-54764Y-22250D01*
X-54455Y-21631D01*
X-54184Y-21050D01*
X-53990Y-20470D01*
X-53797Y-19889D01*
X-53681Y-19348D01*
X-53564Y-18844D01*
X-53487Y-18341D01*
X-53410Y-17916D01*
X-53371Y-17567D01*
X-53332Y-17258D01*
Y-16832D01*
X-53371Y-16058D01*
X-53448Y-15323D01*
X-53564Y-14665D01*
X-53719Y-14007D01*
X-53913Y-13427D01*
X-54145Y-12846D01*
X-54338Y-12343D01*
X-54571Y-11879D01*
X-54842Y-11453D01*
X-55035Y-11104D01*
X-55267Y-10795D01*
X-55461Y-10524D01*
X-55615Y-10331D01*
X-55732Y-10176D01*
X-55809Y-10098D01*
X-55848Y-10060D01*
X-56312Y-9595D01*
X-56815Y-9208D01*
X-57318Y-8860D01*
X-57860Y-8550D01*
X-58363Y-8318D01*
X-58866Y-8086D01*
X-59834Y-7776D01*
X-60260Y-7699D01*
X-60685Y-7622D01*
X-61033Y-7544D01*
X-61343Y-7505D01*
X-61614Y-7467D01*
X-61807D01*
X-61924D01*
X-61962D01*
X-62620Y-7505D01*
X-63278Y-7583D01*
X-63936Y-7738D01*
X-64555Y-7931D01*
X-65794Y-8357D01*
X-66374Y-8628D01*
X-66916Y-8899D01*
X-67419Y-9169D01*
X-67883Y-9440D01*
X-68309Y-9673D01*
X-68657Y-9866D01*
X-68928Y-10060D01*
X-69122Y-10214D01*
X-69277Y-10292D01*
X-69315Y-10331D01*
X-70051Y-10911D01*
X-70863Y-11608D01*
X-71715Y-12382D01*
X-72566Y-13233D01*
X-73456Y-14123D01*
X-74346Y-15013D01*
X-75198Y-15942D01*
X-76010Y-16832D01*
X-76784Y-17722D01*
X-77520Y-18535D01*
X-78139Y-19270D01*
X-78719Y-19928D01*
X-79184Y-20470D01*
X-79493Y-20896D01*
X-79648Y-21050D01*
X-79726Y-21166D01*
X-79764Y-21205D01*
X-79803Y-21244D01*
X-80577Y-22211D01*
X-81351Y-23102D01*
X-82086Y-23914D01*
X-82783Y-24688D01*
X-83441Y-25424D01*
X-84060Y-26081D01*
X-84641Y-26662D01*
X-85144Y-27204D01*
X-85647Y-27668D01*
X-86072Y-28094D01*
X-86421Y-28442D01*
X-86730Y-28752D01*
X-86963Y-28945D01*
X-87156Y-29139D01*
X-87272Y-29216D01*
X-87311Y-29255D01*
X-88510Y-30222D01*
X-89710Y-31035D01*
X-90832Y-31732D01*
X-91800Y-32273D01*
X-92264Y-32506D01*
X-92651Y-32699D01*
X-93000Y-32854D01*
X-93309Y-33009D01*
X-93541Y-33125D01*
X-93735Y-33163D01*
X-93851Y-33241D01*
X-93890D01*
X-94664Y-33473D01*
X-95399Y-33667D01*
X-96134Y-33783D01*
X-96754Y-33860D01*
X-97295Y-33938D01*
X-97721D01*
X-97876D01*
X-97992D01*
X-98069D01*
X-98108D01*
Y-1120D01*
X-92264D01*
Y-25462D01*
D02*
G37*
G36*
X-244651Y363221D02*
X-243103Y363182D01*
X-241632Y363066D01*
X-240278Y362950D01*
X-239040Y362795D01*
X-237879Y362601D01*
X-236872Y362408D01*
X-235905Y362214D01*
X-235092Y362021D01*
X-234396Y361827D01*
X-233776Y361673D01*
X-233273Y361479D01*
X-232886Y361363D01*
X-232615Y361247D01*
X-232422Y361208D01*
X-232383Y361169D01*
X-231493Y360744D01*
X-230680Y360318D01*
X-229906Y359815D01*
X-229171Y359351D01*
X-228513Y358809D01*
X-227894Y358306D01*
X-227352Y357803D01*
X-226849Y357338D01*
X-226423Y356874D01*
X-226036Y356448D01*
X-225688Y356061D01*
X-225417Y355713D01*
X-225224Y355442D01*
X-225069Y355248D01*
X-224992Y355094D01*
X-224953Y355055D01*
X-224488Y354281D01*
X-224101Y353546D01*
X-223714Y352772D01*
X-223444Y351998D01*
X-223173Y351262D01*
X-222979Y350527D01*
X-222786Y349830D01*
X-222631Y349134D01*
X-222553Y348514D01*
X-222476Y347973D01*
X-222399Y347470D01*
X-222360Y347044D01*
X-222321Y346696D01*
Y346231D01*
X-222360Y344993D01*
X-222515Y343832D01*
X-222747Y342709D01*
X-223056Y341626D01*
X-223405Y340658D01*
X-223792Y339730D01*
X-224179Y338878D01*
X-224605Y338104D01*
X-225069Y337408D01*
X-225456Y336827D01*
X-225843Y336285D01*
X-226191Y335860D01*
X-226501Y335511D01*
X-226733Y335240D01*
X-226888Y335086D01*
X-226927Y335047D01*
X-227817Y334273D01*
X-228784Y333576D01*
X-229752Y332996D01*
X-230758Y332493D01*
X-231803Y332067D01*
X-232809Y331719D01*
X-233815Y331409D01*
X-234744Y331177D01*
X-235634Y331022D01*
X-236485Y330867D01*
X-237221Y330790D01*
X-237840Y330712D01*
X-238382Y330674D01*
X-238769Y330635D01*
X-238923D01*
X-239040D01*
X-239078D01*
X-239117D01*
X-240471Y330674D01*
X-241710Y330829D01*
X-242910Y331022D01*
X-244032Y331293D01*
X-245077Y331641D01*
X-246044Y331990D01*
X-246934Y332377D01*
X-247747Y332764D01*
X-248444Y333151D01*
X-249102Y333538D01*
X-249643Y333925D01*
X-250069Y334234D01*
X-250417Y334505D01*
X-250688Y334699D01*
X-250843Y334853D01*
X-250882Y334892D01*
X-251656Y335705D01*
X-252352Y336556D01*
X-252933Y337446D01*
X-253436Y338298D01*
X-253900Y339188D01*
X-254249Y340039D01*
X-254558Y340891D01*
X-254791Y341703D01*
X-254945Y342439D01*
X-255100Y343135D01*
X-255178Y343754D01*
X-255255Y344257D01*
X-255294Y344722D01*
X-255332Y345031D01*
Y345302D01*
X-255294Y345999D01*
X-255255Y346657D01*
X-255061Y347934D01*
X-254752Y349095D01*
X-254597Y349637D01*
X-254442Y350140D01*
X-254287Y350566D01*
X-254133Y350953D01*
X-253978Y351301D01*
X-253823Y351611D01*
X-253707Y351843D01*
X-253630Y351998D01*
X-253552Y352114D01*
Y352152D01*
X-252817Y353275D01*
X-252043Y354281D01*
X-251269Y355132D01*
X-250495Y355868D01*
X-250147Y356177D01*
X-249837Y356448D01*
X-249566Y356642D01*
X-249295Y356835D01*
X-249102Y356990D01*
X-248947Y357106D01*
X-248869Y357145D01*
X-248831Y357183D01*
X-249102D01*
X-249373D01*
X-249566D01*
X-249721D01*
X-249953D01*
X-250030D01*
X-251424Y357145D01*
X-252778Y357029D01*
X-254055Y356874D01*
X-254636Y356796D01*
X-255178Y356719D01*
X-255681Y356642D01*
X-256145Y356564D01*
X-256532Y356487D01*
X-256880Y356409D01*
X-257151Y356332D01*
X-257345Y356293D01*
X-257461Y356255D01*
X-257500D01*
X-258777Y355906D01*
X-259938Y355519D01*
X-260441Y355326D01*
X-260944Y355171D01*
X-261370Y354977D01*
X-261757Y354784D01*
X-262105Y354629D01*
X-262414Y354474D01*
X-262685Y354358D01*
X-262918Y354242D01*
X-263072Y354126D01*
X-263188Y354087D01*
X-263266Y354010D01*
X-263305D01*
X-264079Y353468D01*
X-264736Y352926D01*
X-265317Y352346D01*
X-265820Y351804D01*
X-266207Y351301D01*
X-266478Y350914D01*
X-266594Y350759D01*
X-266633Y350643D01*
X-266710Y350604D01*
Y350566D01*
X-267136Y349753D01*
X-267445Y348901D01*
X-267678Y348050D01*
X-267832Y347276D01*
X-267910Y346618D01*
X-267949Y346347D01*
Y346076D01*
X-267987Y345883D01*
Y345612D01*
X-267949Y344993D01*
X-267910Y344451D01*
X-267678Y343367D01*
X-267407Y342477D01*
X-267058Y341703D01*
X-266865Y341355D01*
X-266710Y341084D01*
X-266555Y340813D01*
X-266401Y340620D01*
X-266284Y340465D01*
X-266207Y340349D01*
X-266168Y340271D01*
X-266130Y340233D01*
X-265743Y339846D01*
X-265356Y339497D01*
X-264388Y338917D01*
X-263421Y338414D01*
X-262414Y338027D01*
X-261989Y337872D01*
X-261524Y337756D01*
X-261137Y337640D01*
X-260789Y337562D01*
X-260518Y337485D01*
X-260325Y337446D01*
X-260170Y337408D01*
X-260131D01*
X-260673Y331564D01*
X-261757Y331719D01*
X-262763Y331951D01*
X-263692Y332260D01*
X-264582Y332570D01*
X-265394Y332918D01*
X-266130Y333267D01*
X-266826Y333654D01*
X-267407Y334041D01*
X-267949Y334428D01*
X-268452Y334776D01*
X-268839Y335086D01*
X-269187Y335395D01*
X-269419Y335627D01*
X-269613Y335821D01*
X-269729Y335937D01*
X-269767Y335976D01*
X-270348Y336672D01*
X-270812Y337446D01*
X-271238Y338220D01*
X-271625Y339033D01*
X-271935Y339807D01*
X-272205Y340620D01*
X-272399Y341394D01*
X-272592Y342129D01*
X-272709Y342826D01*
X-272825Y343445D01*
X-272863Y344025D01*
X-272941Y344528D01*
Y344915D01*
X-272979Y345225D01*
Y345496D01*
X-272941Y346502D01*
X-272863Y347470D01*
X-272709Y348398D01*
X-272515Y349288D01*
X-272283Y350140D01*
X-272051Y350914D01*
X-271780Y351649D01*
X-271509Y352307D01*
X-271238Y352926D01*
X-270967Y353429D01*
X-270735Y353894D01*
X-270503Y354281D01*
X-270309Y354590D01*
X-270154Y354823D01*
X-270077Y354977D01*
X-270038Y355016D01*
X-269458Y355751D01*
X-268839Y356448D01*
X-268142Y357106D01*
X-267445Y357725D01*
X-266749Y358267D01*
X-266052Y358770D01*
X-265356Y359234D01*
X-264659Y359621D01*
X-264001Y360008D01*
X-263421Y360318D01*
X-262879Y360589D01*
X-262414Y360782D01*
X-262027Y360937D01*
X-261718Y361092D01*
X-261563Y361131D01*
X-261486Y361169D01*
X-260402Y361556D01*
X-259202Y361866D01*
X-258003Y362137D01*
X-256726Y362369D01*
X-254210Y362756D01*
X-252972Y362872D01*
X-251772Y362988D01*
X-250650Y363104D01*
X-249643Y363143D01*
X-248676Y363182D01*
X-247902Y363221D01*
X-247554D01*
X-247244Y363259D01*
X-246973D01*
X-246741D01*
X-246547D01*
X-246431D01*
X-246354D01*
X-246315D01*
X-244651Y363221D01*
D02*
G37*
G36*
X-71018Y396812D02*
X-69857Y396735D01*
X-68735Y396696D01*
X-67690Y396580D01*
X-66722Y396502D01*
X-65832Y396386D01*
X-65058Y396309D01*
X-64323Y396193D01*
X-63704Y396077D01*
X-63201Y395999D01*
X-62736Y395922D01*
X-62427Y395845D01*
X-62156Y395767D01*
X-62001Y395728D01*
X-61962D01*
X-60376Y395264D01*
X-59640Y395032D01*
X-58944Y394761D01*
X-58325Y394529D01*
X-57705Y394258D01*
X-57125Y393987D01*
X-56622Y393755D01*
X-56157Y393523D01*
X-55770Y393329D01*
X-55422Y393136D01*
X-55112Y392942D01*
X-54880Y392826D01*
X-54725Y392710D01*
X-54609Y392671D01*
X-54571Y392632D01*
X-53487Y391858D01*
X-52558Y391046D01*
X-51784Y390233D01*
X-51126Y389420D01*
X-50584Y388724D01*
X-50391Y388453D01*
X-50236Y388182D01*
X-50081Y387988D01*
X-50004Y387795D01*
X-49927Y387718D01*
Y387679D01*
X-49385Y386518D01*
X-48998Y385318D01*
X-48688Y384118D01*
X-48495Y383035D01*
X-48417Y382532D01*
X-48379Y382106D01*
X-48340Y381680D01*
Y381332D01*
X-48301Y381061D01*
Y380674D01*
X-48340Y379668D01*
X-48417Y378739D01*
X-48572Y377849D01*
X-48766Y376998D01*
X-48959Y376185D01*
X-49230Y375450D01*
X-49462Y374753D01*
X-49733Y374134D01*
X-50004Y373592D01*
X-50275Y373089D01*
X-50546Y372663D01*
X-50739Y372315D01*
X-50933Y372044D01*
X-51088Y371812D01*
X-51165Y371696D01*
X-51204Y371657D01*
X-51784Y370999D01*
X-52403Y370419D01*
X-53061Y369838D01*
X-53719Y369335D01*
X-54416Y368832D01*
X-55112Y368406D01*
X-55770Y367981D01*
X-56428Y367632D01*
X-57047Y367323D01*
X-57628Y367052D01*
X-58131Y366820D01*
X-58595Y366626D01*
X-58982Y366471D01*
X-59253Y366355D01*
X-59408Y366317D01*
X-59486Y366278D01*
X-60530Y365968D01*
X-61653Y365697D01*
X-62775Y365465D01*
X-63975Y365233D01*
X-66335Y364923D01*
X-67496Y364807D01*
X-68580Y364730D01*
X-69625Y364652D01*
X-70592Y364575D01*
X-71444Y364536D01*
X-72179D01*
X-72798Y364498D01*
X-73069D01*
X-73263D01*
X-73418D01*
X-73534D01*
X-73611D01*
X-73650D01*
X-74927D01*
X-76165Y364536D01*
X-77365Y364614D01*
X-78526Y364691D01*
X-79648Y364807D01*
X-80732Y364962D01*
X-81738Y365078D01*
X-82706Y365272D01*
X-83634Y365426D01*
X-84524Y365620D01*
X-85376Y365813D01*
X-86189Y366046D01*
X-86963Y366278D01*
X-87698Y366471D01*
X-88356Y366704D01*
X-89014Y366936D01*
X-89594Y367168D01*
X-90175Y367400D01*
X-90678Y367632D01*
X-91142Y367826D01*
X-91606Y368058D01*
X-91993Y368252D01*
X-92342Y368445D01*
X-92651Y368600D01*
X-93193Y368909D01*
X-93541Y369180D01*
X-93774Y369335D01*
X-93851Y369374D01*
X-94741Y370187D01*
X-95554Y371038D01*
X-96212Y371928D01*
X-96792Y372857D01*
X-97295Y373824D01*
X-97721Y374753D01*
X-98031Y375682D01*
X-98302Y376572D01*
X-98534Y377423D01*
X-98689Y378197D01*
X-98805Y378894D01*
X-98882Y379474D01*
X-98921Y379978D01*
X-98960Y380365D01*
Y380674D01*
X-98921Y381680D01*
X-98843Y382609D01*
X-98689Y383499D01*
X-98495Y384351D01*
X-98302Y385163D01*
X-98031Y385899D01*
X-97760Y386595D01*
X-97489Y387214D01*
X-97218Y387756D01*
X-96986Y388259D01*
X-96715Y388646D01*
X-96521Y388995D01*
X-96328Y389304D01*
X-96173Y389498D01*
X-96096Y389614D01*
X-96057Y389653D01*
X-95477Y390310D01*
X-94857Y390930D01*
X-94199Y391471D01*
X-93541Y392013D01*
X-92845Y392478D01*
X-92148Y392942D01*
X-91490Y393329D01*
X-90832Y393677D01*
X-90213Y394026D01*
X-89633Y394297D01*
X-89091Y394529D01*
X-88665Y394684D01*
X-88278Y394838D01*
X-88007Y394954D01*
X-87853Y394993D01*
X-87775Y395032D01*
X-86730Y395341D01*
X-85608Y395651D01*
X-84486Y395883D01*
X-83286Y396077D01*
X-80925Y396425D01*
X-79803Y396541D01*
X-78681Y396619D01*
X-77674Y396696D01*
X-76707Y396773D01*
X-75856Y396812D01*
X-75082D01*
X-74501Y396851D01*
X-74230D01*
X-74037D01*
X-73882D01*
X-73766D01*
X-73688D01*
X-73650D01*
X-72295D01*
X-71018Y396812D01*
D02*
G37*
G36*
X-48301Y344954D02*
X-48920Y344644D01*
X-49501Y344257D01*
X-50701Y343445D01*
X-51823Y342555D01*
X-52829Y341665D01*
X-53294Y341239D01*
X-53719Y340852D01*
X-54068Y340465D01*
X-54377Y340155D01*
X-54609Y339884D01*
X-54803Y339691D01*
X-54919Y339575D01*
X-54958Y339536D01*
X-56196Y338065D01*
X-57318Y336556D01*
X-58286Y335047D01*
X-58750Y334350D01*
X-59137Y333654D01*
X-59486Y333034D01*
X-59834Y332454D01*
X-60105Y331951D01*
X-60337Y331486D01*
X-60530Y331138D01*
X-60647Y330867D01*
X-60724Y330712D01*
X-60763Y330635D01*
X-66645D01*
X-66219Y331719D01*
X-65716Y332841D01*
X-65174Y333886D01*
X-64671Y334892D01*
X-64439Y335318D01*
X-64207Y335743D01*
X-64013Y336092D01*
X-63859Y336440D01*
X-63704Y336672D01*
X-63588Y336866D01*
X-63549Y336982D01*
X-63510Y337021D01*
X-62736Y338298D01*
X-61962Y339459D01*
X-61614Y339962D01*
X-61266Y340426D01*
X-60956Y340891D01*
X-60647Y341278D01*
X-60337Y341626D01*
X-60105Y341935D01*
X-59873Y342206D01*
X-59679Y342439D01*
X-59524Y342593D01*
X-59408Y342709D01*
X-59369Y342787D01*
X-59331Y342826D01*
X-98108D01*
Y348901D01*
X-48301D01*
Y344954D01*
D02*
G37*
G36*
X100919Y-354696D02*
X100300Y-355005D01*
X99719Y-355392D01*
X98519Y-356205D01*
X97397Y-357095D01*
X96391Y-357985D01*
X95927Y-358411D01*
X95501Y-358798D01*
X95153Y-359185D01*
X94843Y-359495D01*
X94611Y-359766D01*
X94417Y-359959D01*
X94301Y-360075D01*
X94262Y-360114D01*
X93024Y-361584D01*
X91902Y-363094D01*
X90934Y-364603D01*
X90470Y-365300D01*
X90083Y-365996D01*
X89734Y-366615D01*
X89386Y-367196D01*
X89115Y-367699D01*
X88883Y-368163D01*
X88690Y-368512D01*
X88573Y-368783D01*
X88496Y-368938D01*
X88457Y-369015D01*
X82575D01*
X83001Y-367931D01*
X83504Y-366809D01*
X84046Y-365764D01*
X84549Y-364758D01*
X84781Y-364332D01*
X85013Y-363906D01*
X85207Y-363558D01*
X85361Y-363210D01*
X85516Y-362978D01*
X85632Y-362784D01*
X85671Y-362668D01*
X85710Y-362629D01*
X86484Y-361352D01*
X87258Y-360191D01*
X87606Y-359688D01*
X87954Y-359224D01*
X88264Y-358759D01*
X88573Y-358372D01*
X88883Y-358024D01*
X89115Y-357714D01*
X89347Y-357444D01*
X89541Y-357211D01*
X89696Y-357057D01*
X89812Y-356940D01*
X89851Y-356863D01*
X89889Y-356824D01*
X51112D01*
Y-350748D01*
X100919D01*
Y-354696D01*
D02*
G37*
G36*
X230976Y-360462D02*
X231595Y-360075D01*
X232175Y-359649D01*
X232717Y-359224D01*
X233220Y-358798D01*
X233646Y-358450D01*
X233956Y-358179D01*
X234149Y-357985D01*
X234226Y-357908D01*
X234575Y-357560D01*
X234962Y-357173D01*
X235426Y-356670D01*
X235891Y-356166D01*
X236935Y-355005D01*
X237980Y-353806D01*
X238483Y-353225D01*
X238948Y-352683D01*
X239374Y-352180D01*
X239761Y-351755D01*
X240070Y-351368D01*
X240302Y-351097D01*
X240457Y-350942D01*
X240496Y-350865D01*
X241502Y-349665D01*
X242470Y-348581D01*
X243360Y-347536D01*
X244211Y-346608D01*
X244985Y-345756D01*
X245720Y-344982D01*
X246378Y-344324D01*
X246959Y-343705D01*
X247500Y-343163D01*
X247926Y-342699D01*
X248352Y-342312D01*
X248661Y-342002D01*
X248932Y-341770D01*
X249087Y-341577D01*
X249203Y-341499D01*
X249242Y-341461D01*
X250403Y-340493D01*
X251525Y-339642D01*
X252531Y-338945D01*
X253460Y-338403D01*
X253847Y-338171D01*
X254196Y-337978D01*
X254505Y-337784D01*
X254776Y-337668D01*
X255008Y-337552D01*
X255163Y-337474D01*
X255240Y-337436D01*
X255279D01*
X256363Y-337010D01*
X257408Y-336700D01*
X258414Y-336507D01*
X259304Y-336352D01*
X259691Y-336313D01*
X260078Y-336275D01*
X260388Y-336236D01*
X260659Y-336197D01*
X260852D01*
X261046D01*
X261123D01*
X261162D01*
X262245Y-336236D01*
X263251Y-336391D01*
X264219Y-336584D01*
X265148Y-336855D01*
X266038Y-337165D01*
X266812Y-337513D01*
X267586Y-337900D01*
X268244Y-338287D01*
X268863Y-338674D01*
X269405Y-339061D01*
X269869Y-339409D01*
X270256Y-339719D01*
X270566Y-339990D01*
X270759Y-340183D01*
X270914Y-340338D01*
X270953Y-340377D01*
X271649Y-341190D01*
X272269Y-342080D01*
X272810Y-342970D01*
X273275Y-343899D01*
X273662Y-344866D01*
X273971Y-345795D01*
X274242Y-346724D01*
X274436Y-347575D01*
X274591Y-348426D01*
X274745Y-349200D01*
X274823Y-349897D01*
X274861Y-350516D01*
X274900Y-350981D01*
X274939Y-351368D01*
Y-351677D01*
X274900Y-352954D01*
X274784Y-354193D01*
X274591Y-355354D01*
X274358Y-356437D01*
X274087Y-357444D01*
X273778Y-358372D01*
X273430Y-359224D01*
X273120Y-359998D01*
X272772Y-360656D01*
X272423Y-361275D01*
X272114Y-361778D01*
X271843Y-362204D01*
X271611Y-362552D01*
X271417Y-362784D01*
X271301Y-362939D01*
X271262Y-362978D01*
X270527Y-363713D01*
X269753Y-364371D01*
X268902Y-364990D01*
X268050Y-365493D01*
X267160Y-365958D01*
X266270Y-366345D01*
X265380Y-366654D01*
X264529Y-366925D01*
X263755Y-367157D01*
X262981Y-367351D01*
X262323Y-367506D01*
X261742Y-367622D01*
X261239Y-367699D01*
X260891Y-367738D01*
X260659Y-367776D01*
X260620D01*
X260581D01*
X259923Y-361507D01*
X260775Y-361468D01*
X261587Y-361391D01*
X262323Y-361275D01*
X263058Y-361081D01*
X263677Y-360888D01*
X264296Y-360656D01*
X264838Y-360423D01*
X265341Y-360191D01*
X265767Y-359959D01*
X266154Y-359688D01*
X266502Y-359495D01*
X266773Y-359301D01*
X266967Y-359108D01*
X267121Y-358992D01*
X267199Y-358914D01*
X267238Y-358875D01*
X267702Y-358372D01*
X268128Y-357792D01*
X268476Y-357250D01*
X268786Y-356631D01*
X269056Y-356050D01*
X269250Y-355470D01*
X269443Y-354889D01*
X269560Y-354348D01*
X269676Y-353844D01*
X269753Y-353341D01*
X269830Y-352916D01*
X269869Y-352567D01*
X269908Y-352258D01*
Y-351832D01*
X269869Y-351058D01*
X269792Y-350323D01*
X269676Y-349665D01*
X269521Y-349007D01*
X269327Y-348426D01*
X269095Y-347846D01*
X268902Y-347343D01*
X268669Y-346878D01*
X268399Y-346453D01*
X268205Y-346104D01*
X267973Y-345795D01*
X267779Y-345524D01*
X267625Y-345330D01*
X267508Y-345176D01*
X267431Y-345098D01*
X267392Y-345060D01*
X266928Y-344595D01*
X266425Y-344208D01*
X265922Y-343860D01*
X265380Y-343550D01*
X264877Y-343318D01*
X264374Y-343086D01*
X263406Y-342776D01*
X262981Y-342699D01*
X262555Y-342622D01*
X262207Y-342544D01*
X261897Y-342505D01*
X261626Y-342467D01*
X261433D01*
X261316D01*
X261278D01*
X260620Y-342505D01*
X259962Y-342583D01*
X259304Y-342738D01*
X258685Y-342931D01*
X257446Y-343357D01*
X256866Y-343628D01*
X256324Y-343899D01*
X255821Y-344170D01*
X255357Y-344440D01*
X254931Y-344673D01*
X254583Y-344866D01*
X254312Y-345060D01*
X254118Y-345214D01*
X253963Y-345292D01*
X253925Y-345330D01*
X253189Y-345911D01*
X252377Y-346608D01*
X251525Y-347382D01*
X250674Y-348233D01*
X249784Y-349123D01*
X248894Y-350013D01*
X248042Y-350942D01*
X247230Y-351832D01*
X246456Y-352722D01*
X245720Y-353535D01*
X245101Y-354270D01*
X244521Y-354928D01*
X244056Y-355470D01*
X243747Y-355896D01*
X243592Y-356050D01*
X243514Y-356166D01*
X243476Y-356205D01*
X243437Y-356244D01*
X242663Y-357211D01*
X241889Y-358101D01*
X241154Y-358914D01*
X240457Y-359688D01*
X239799Y-360423D01*
X239180Y-361081D01*
X238600Y-361662D01*
X238096Y-362204D01*
X237593Y-362668D01*
X237168Y-363094D01*
X236819Y-363442D01*
X236510Y-363752D01*
X236278Y-363945D01*
X236084Y-364139D01*
X235968Y-364216D01*
X235929Y-364255D01*
X234730Y-365222D01*
X233530Y-366035D01*
X232407Y-366732D01*
X231440Y-367273D01*
X230976Y-367506D01*
X230589Y-367699D01*
X230240Y-367854D01*
X229931Y-368009D01*
X229698Y-368125D01*
X229505Y-368163D01*
X229389Y-368241D01*
X229350D01*
X228576Y-368473D01*
X227841Y-368667D01*
X227106Y-368783D01*
X226486Y-368860D01*
X225945Y-368938D01*
X225519D01*
X225364D01*
X225248D01*
X225171D01*
X225132D01*
Y-336120D01*
X230976D01*
Y-360462D01*
D02*
G37*
G36*
X78589Y28221D02*
X80137Y28182D01*
X81608Y28066D01*
X82962Y27950D01*
X84200Y27795D01*
X85361Y27601D01*
X86368Y27408D01*
X87335Y27214D01*
X88148Y27021D01*
X88844Y26827D01*
X89464Y26672D01*
X89967Y26479D01*
X90354Y26363D01*
X90625Y26247D01*
X90818Y26208D01*
X90857Y26169D01*
X91747Y25744D01*
X92560Y25318D01*
X93334Y24815D01*
X94069Y24351D01*
X94727Y23809D01*
X95346Y23306D01*
X95888Y22802D01*
X96391Y22338D01*
X96817Y21874D01*
X97204Y21448D01*
X97552Y21061D01*
X97823Y20713D01*
X98016Y20442D01*
X98171Y20248D01*
X98249Y20093D01*
X98287Y20055D01*
X98752Y19281D01*
X99139Y18546D01*
X99526Y17771D01*
X99796Y16997D01*
X100067Y16262D01*
X100261Y15527D01*
X100454Y14830D01*
X100609Y14134D01*
X100687Y13514D01*
X100764Y12973D01*
X100841Y12470D01*
X100880Y12044D01*
X100919Y11696D01*
Y11231D01*
X100880Y9993D01*
X100725Y8832D01*
X100493Y7710D01*
X100183Y6626D01*
X99835Y5658D01*
X99448Y4730D01*
X99061Y3878D01*
X98635Y3104D01*
X98171Y2408D01*
X97784Y1827D01*
X97397Y1285D01*
X97049Y860D01*
X96739Y511D01*
X96507Y240D01*
X96352Y86D01*
X96314Y47D01*
X95423Y-727D01*
X94456Y-1424D01*
X93488Y-2004D01*
X92482Y-2507D01*
X91437Y-2933D01*
X90431Y-3281D01*
X89425Y-3591D01*
X88496Y-3823D01*
X87606Y-3978D01*
X86755Y-4133D01*
X86019Y-4210D01*
X85400Y-4287D01*
X84858Y-4326D01*
X84471Y-4365D01*
X84317D01*
X84200D01*
X84162D01*
X84123D01*
X82769Y-4326D01*
X81530Y-4171D01*
X80330Y-3978D01*
X79208Y-3707D01*
X78163Y-3359D01*
X77196Y-3010D01*
X76306Y-2623D01*
X75493Y-2236D01*
X74796Y-1849D01*
X74138Y-1462D01*
X73597Y-1075D01*
X73171Y-766D01*
X72823Y-495D01*
X72552Y-301D01*
X72397Y-147D01*
X72358Y-108D01*
X71584Y705D01*
X70888Y1556D01*
X70307Y2446D01*
X69804Y3298D01*
X69340Y4188D01*
X68991Y5039D01*
X68682Y5891D01*
X68450Y6703D01*
X68295Y7439D01*
X68140Y8135D01*
X68062Y8754D01*
X67985Y9258D01*
X67946Y9722D01*
X67908Y10031D01*
Y10302D01*
X67946Y10999D01*
X67985Y11657D01*
X68179Y12934D01*
X68488Y14095D01*
X68643Y14637D01*
X68798Y15140D01*
X68953Y15566D01*
X69107Y15953D01*
X69262Y16301D01*
X69417Y16610D01*
X69533Y16843D01*
X69611Y16997D01*
X69688Y17114D01*
Y17152D01*
X70423Y18275D01*
X71197Y19281D01*
X71971Y20132D01*
X72745Y20867D01*
X73094Y21177D01*
X73403Y21448D01*
X73674Y21642D01*
X73945Y21835D01*
X74138Y21990D01*
X74293Y22106D01*
X74371Y22145D01*
X74409Y22183D01*
X74138D01*
X73868D01*
X73674D01*
X73519D01*
X73287D01*
X73210D01*
X71816Y22145D01*
X70462Y22029D01*
X69185Y21874D01*
X68604Y21796D01*
X68062Y21719D01*
X67559Y21642D01*
X67095Y21564D01*
X66708Y21487D01*
X66360Y21409D01*
X66089Y21332D01*
X65895Y21293D01*
X65779Y21255D01*
X65740D01*
X64463Y20906D01*
X63302Y20519D01*
X62799Y20326D01*
X62296Y20171D01*
X61870Y19977D01*
X61483Y19784D01*
X61135Y19629D01*
X60826Y19474D01*
X60555Y19358D01*
X60322Y19242D01*
X60168Y19126D01*
X60052Y19087D01*
X59974Y19010D01*
X59935D01*
X59161Y18468D01*
X58504Y17926D01*
X57923Y17346D01*
X57420Y16804D01*
X57033Y16301D01*
X56762Y15914D01*
X56646Y15759D01*
X56607Y15643D01*
X56530Y15604D01*
Y15566D01*
X56104Y14753D01*
X55795Y13902D01*
X55562Y13050D01*
X55408Y12276D01*
X55330Y11618D01*
X55291Y11347D01*
Y11076D01*
X55253Y10883D01*
Y10612D01*
X55291Y9993D01*
X55330Y9451D01*
X55562Y8367D01*
X55833Y7477D01*
X56182Y6703D01*
X56375Y6355D01*
X56530Y6084D01*
X56685Y5813D01*
X56840Y5620D01*
X56956Y5465D01*
X57033Y5349D01*
X57072Y5271D01*
X57110Y5233D01*
X57497Y4846D01*
X57884Y4497D01*
X58852Y3917D01*
X59819Y3414D01*
X60826Y3027D01*
X61251Y2872D01*
X61716Y2756D01*
X62103Y2640D01*
X62451Y2562D01*
X62722Y2485D01*
X62915Y2446D01*
X63070Y2408D01*
X63109D01*
X62567Y-3436D01*
X61483Y-3281D01*
X60477Y-3049D01*
X59548Y-2740D01*
X58658Y-2430D01*
X57846Y-2082D01*
X57110Y-1733D01*
X56414Y-1346D01*
X55833Y-959D01*
X55291Y-572D01*
X54788Y-224D01*
X54401Y86D01*
X54053Y395D01*
X53821Y627D01*
X53627Y821D01*
X53511Y937D01*
X53473Y976D01*
X52892Y1672D01*
X52428Y2446D01*
X52002Y3220D01*
X51615Y4033D01*
X51305Y4807D01*
X51035Y5620D01*
X50841Y6394D01*
X50648Y7129D01*
X50531Y7826D01*
X50415Y8445D01*
X50377Y9025D01*
X50299Y9528D01*
Y9915D01*
X50261Y10225D01*
Y10496D01*
X50299Y11502D01*
X50377Y12470D01*
X50531Y13398D01*
X50725Y14289D01*
X50957Y15140D01*
X51189Y15914D01*
X51460Y16649D01*
X51731Y17307D01*
X52002Y17926D01*
X52273Y18429D01*
X52505Y18894D01*
X52737Y19281D01*
X52931Y19590D01*
X53086Y19823D01*
X53163Y19977D01*
X53202Y20016D01*
X53782Y20751D01*
X54401Y21448D01*
X55098Y22106D01*
X55795Y22725D01*
X56491Y23267D01*
X57188Y23770D01*
X57884Y24234D01*
X58581Y24621D01*
X59239Y25008D01*
X59819Y25318D01*
X60361Y25589D01*
X60826Y25782D01*
X61213Y25937D01*
X61522Y26092D01*
X61677Y26131D01*
X61754Y26169D01*
X62838Y26556D01*
X64038Y26866D01*
X65237Y27137D01*
X66514Y27369D01*
X69030Y27756D01*
X70268Y27872D01*
X71468Y27988D01*
X72590Y28104D01*
X73597Y28143D01*
X74564Y28182D01*
X75338Y28221D01*
X75686D01*
X75996Y28259D01*
X76267D01*
X76499D01*
X76693D01*
X76809D01*
X76886D01*
X76925D01*
X78589Y28221D01*
D02*
G37*
G36*
X252222Y61812D02*
X253383Y61735D01*
X254505Y61696D01*
X255550Y61580D01*
X256518Y61502D01*
X257408Y61386D01*
X258182Y61309D01*
X258917Y61193D01*
X259536Y61077D01*
X260039Y60999D01*
X260504Y60922D01*
X260813Y60845D01*
X261084Y60767D01*
X261239Y60728D01*
X261278D01*
X262864Y60264D01*
X263600Y60032D01*
X264296Y59761D01*
X264916Y59529D01*
X265535Y59258D01*
X266115Y58987D01*
X266618Y58755D01*
X267083Y58523D01*
X267470Y58329D01*
X267818Y58136D01*
X268128Y57942D01*
X268360Y57826D01*
X268515Y57710D01*
X268631Y57671D01*
X268669Y57633D01*
X269753Y56858D01*
X270682Y56046D01*
X271456Y55233D01*
X272114Y54420D01*
X272656Y53724D01*
X272849Y53453D01*
X273004Y53182D01*
X273159Y52989D01*
X273236Y52795D01*
X273313Y52718D01*
Y52679D01*
X273855Y51518D01*
X274242Y50318D01*
X274552Y49118D01*
X274745Y48035D01*
X274823Y47532D01*
X274861Y47106D01*
X274900Y46680D01*
Y46332D01*
X274939Y46061D01*
Y45674D01*
X274900Y44668D01*
X274823Y43739D01*
X274668Y42849D01*
X274474Y41998D01*
X274281Y41185D01*
X274010Y40450D01*
X273778Y39753D01*
X273507Y39134D01*
X273236Y38592D01*
X272965Y38089D01*
X272694Y37663D01*
X272501Y37315D01*
X272307Y37044D01*
X272152Y36812D01*
X272075Y36696D01*
X272036Y36657D01*
X271456Y35999D01*
X270837Y35419D01*
X270179Y34838D01*
X269521Y34335D01*
X268824Y33832D01*
X268128Y33406D01*
X267470Y32981D01*
X266812Y32632D01*
X266193Y32323D01*
X265612Y32052D01*
X265109Y31820D01*
X264645Y31626D01*
X264258Y31471D01*
X263987Y31355D01*
X263832Y31317D01*
X263755Y31278D01*
X262710Y30968D01*
X261587Y30697D01*
X260465Y30465D01*
X259265Y30233D01*
X256905Y29923D01*
X255744Y29807D01*
X254660Y29730D01*
X253615Y29652D01*
X252648Y29575D01*
X251796Y29536D01*
X251061D01*
X250442Y29498D01*
X250171D01*
X249977D01*
X249822D01*
X249706D01*
X249629D01*
X249590D01*
X248313D01*
X247075Y29536D01*
X245875Y29614D01*
X244714Y29691D01*
X243592Y29807D01*
X242508Y29962D01*
X241502Y30078D01*
X240535Y30272D01*
X239606Y30426D01*
X238716Y30620D01*
X237864Y30813D01*
X237052Y31046D01*
X236278Y31278D01*
X235542Y31471D01*
X234884Y31703D01*
X234226Y31936D01*
X233646Y32168D01*
X233065Y32400D01*
X232562Y32632D01*
X232098Y32826D01*
X231633Y33058D01*
X231246Y33252D01*
X230898Y33445D01*
X230589Y33600D01*
X230047Y33909D01*
X229698Y34180D01*
X229466Y34335D01*
X229389Y34374D01*
X228499Y35187D01*
X227686Y36038D01*
X227028Y36928D01*
X226448Y37857D01*
X225945Y38824D01*
X225519Y39753D01*
X225209Y40682D01*
X224938Y41572D01*
X224706Y42423D01*
X224551Y43197D01*
X224435Y43894D01*
X224358Y44474D01*
X224319Y44978D01*
X224280Y45365D01*
Y45674D01*
X224319Y46680D01*
X224397Y47609D01*
X224551Y48499D01*
X224745Y49351D01*
X224938Y50163D01*
X225209Y50899D01*
X225480Y51595D01*
X225751Y52215D01*
X226022Y52756D01*
X226254Y53259D01*
X226525Y53646D01*
X226719Y53995D01*
X226912Y54304D01*
X227067Y54498D01*
X227144Y54614D01*
X227183Y54653D01*
X227763Y55310D01*
X228383Y55930D01*
X229041Y56471D01*
X229698Y57013D01*
X230395Y57478D01*
X231092Y57942D01*
X231750Y58329D01*
X232407Y58677D01*
X233027Y59026D01*
X233607Y59297D01*
X234149Y59529D01*
X234575Y59684D01*
X234962Y59838D01*
X235233Y59955D01*
X235387Y59993D01*
X235465Y60032D01*
X236510Y60342D01*
X237632Y60651D01*
X238754Y60883D01*
X239954Y61077D01*
X242315Y61425D01*
X243437Y61541D01*
X244559Y61619D01*
X245565Y61696D01*
X246533Y61773D01*
X247384Y61812D01*
X248158D01*
X248739Y61851D01*
X249010D01*
X249203D01*
X249358D01*
X249474D01*
X249552D01*
X249590D01*
X250945D01*
X252222Y61812D01*
D02*
G37*
G36*
X274939Y9954D02*
X274320Y9645D01*
X273739Y9258D01*
X272539Y8445D01*
X271417Y7555D01*
X270411Y6665D01*
X269947Y6239D01*
X269521Y5852D01*
X269173Y5465D01*
X268863Y5155D01*
X268631Y4884D01*
X268437Y4691D01*
X268321Y4575D01*
X268282Y4536D01*
X267044Y3066D01*
X265922Y1556D01*
X264954Y47D01*
X264490Y-650D01*
X264103Y-1346D01*
X263755Y-1966D01*
X263406Y-2546D01*
X263135Y-3049D01*
X262903Y-3514D01*
X262710Y-3862D01*
X262594Y-4133D01*
X262516Y-4287D01*
X262477Y-4365D01*
X256595D01*
X257021Y-3281D01*
X257524Y-2159D01*
X258066Y-1114D01*
X258569Y-108D01*
X258801Y318D01*
X259033Y744D01*
X259227Y1092D01*
X259381Y1440D01*
X259536Y1672D01*
X259652Y1866D01*
X259691Y1982D01*
X259730Y2021D01*
X260504Y3298D01*
X261278Y4459D01*
X261626Y4962D01*
X261974Y5426D01*
X262284Y5891D01*
X262594Y6278D01*
X262903Y6626D01*
X263135Y6936D01*
X263368Y7206D01*
X263561Y7439D01*
X263716Y7593D01*
X263832Y7710D01*
X263871Y7787D01*
X263909Y7826D01*
X225132D01*
Y13902D01*
X274939D01*
Y9954D01*
D02*
G37*
%LPC*%
G36*
X-238304Y356487D02*
X-238575D01*
X-238730D01*
X-238807D01*
X-239775Y356448D01*
X-240665Y356371D01*
X-241516Y356216D01*
X-242290Y356061D01*
X-243026Y355868D01*
X-243684Y355635D01*
X-244303Y355364D01*
X-244883Y355132D01*
X-245348Y354861D01*
X-245773Y354590D01*
X-246160Y354358D01*
X-246470Y354165D01*
X-246702Y354010D01*
X-246857Y353855D01*
X-246973Y353778D01*
X-247012Y353739D01*
X-247515Y353197D01*
X-247979Y352655D01*
X-248366Y352114D01*
X-248715Y351533D01*
X-248986Y350914D01*
X-249218Y350372D01*
X-249411Y349792D01*
X-249566Y349250D01*
X-249721Y348747D01*
X-249798Y348282D01*
X-249876Y347857D01*
X-249914Y347508D01*
Y347237D01*
X-249953Y347005D01*
Y346812D01*
X-249914Y346038D01*
X-249837Y345302D01*
X-249682Y344606D01*
X-249489Y343909D01*
X-249256Y343290D01*
X-249024Y342709D01*
X-248753Y342168D01*
X-248482Y341703D01*
X-248212Y341239D01*
X-247941Y340852D01*
X-247708Y340542D01*
X-247476Y340233D01*
X-247283Y340039D01*
X-247128Y339846D01*
X-247050Y339768D01*
X-247012Y339730D01*
X-246431Y339226D01*
X-245812Y338801D01*
X-245193Y338414D01*
X-244535Y338104D01*
X-243916Y337833D01*
X-243258Y337601D01*
X-242639Y337408D01*
X-242058Y337253D01*
X-241478Y337137D01*
X-240975Y337059D01*
X-240510Y336982D01*
X-240084Y336943D01*
X-239775D01*
X-239504Y336904D01*
X-239349D01*
X-239310D01*
X-238343Y336943D01*
X-237414Y337021D01*
X-236563Y337175D01*
X-235711Y337369D01*
X-234976Y337601D01*
X-234241Y337833D01*
X-233583Y338104D01*
X-233002Y338414D01*
X-232461Y338685D01*
X-231996Y338956D01*
X-231609Y339188D01*
X-231300Y339420D01*
X-231029Y339613D01*
X-230835Y339768D01*
X-230719Y339846D01*
X-230680Y339884D01*
X-230100Y340465D01*
X-229597Y341045D01*
X-229132Y341665D01*
X-228745Y342284D01*
X-228436Y342864D01*
X-228165Y343445D01*
X-227933Y344025D01*
X-227778Y344567D01*
X-227623Y345070D01*
X-227546Y345535D01*
X-227468Y345922D01*
X-227391Y346270D01*
Y346579D01*
X-227352Y346773D01*
Y346966D01*
X-227391Y347702D01*
X-227468Y348398D01*
X-227623Y349056D01*
X-227817Y349675D01*
X-228088Y350295D01*
X-228320Y350837D01*
X-228629Y351340D01*
X-228900Y351804D01*
X-229171Y352230D01*
X-229481Y352617D01*
X-229713Y352926D01*
X-229945Y353197D01*
X-230177Y353429D01*
X-230332Y353584D01*
X-230410Y353662D01*
X-230448Y353700D01*
X-231067Y354203D01*
X-231687Y354629D01*
X-232383Y354977D01*
X-233041Y355326D01*
X-233776Y355597D01*
X-234434Y355790D01*
X-235131Y355984D01*
X-235789Y356138D01*
X-236408Y356255D01*
X-236988Y356332D01*
X-237492Y356409D01*
X-237917Y356448D01*
X-238304Y356487D01*
D02*
G37*
G36*
X-72489Y390581D02*
X-72837D01*
X-73108D01*
X-73340D01*
X-73495D01*
X-73611D01*
X-73650D01*
X-74772D01*
X-75856Y390543D01*
X-76862Y390504D01*
X-77868Y390465D01*
X-78797Y390388D01*
X-79687Y390310D01*
X-80538Y390233D01*
X-81351Y390117D01*
X-82125Y390040D01*
X-82860Y389923D01*
X-83518Y389807D01*
X-84176Y389691D01*
X-84795Y389536D01*
X-85337Y389420D01*
X-86382Y389149D01*
X-87272Y388879D01*
X-88007Y388608D01*
X-88627Y388375D01*
X-89130Y388182D01*
X-89478Y387988D01*
X-89749Y387834D01*
X-89904Y387756D01*
X-89942Y387718D01*
X-90639Y387176D01*
X-91258Y386595D01*
X-91800Y386015D01*
X-92264Y385396D01*
X-92651Y384815D01*
X-93000Y384235D01*
X-93232Y383654D01*
X-93464Y383112D01*
X-93619Y382609D01*
X-93735Y382145D01*
X-93851Y381719D01*
X-93890Y381371D01*
X-93928Y381061D01*
X-93967Y380868D01*
Y380674D01*
X-93928Y379900D01*
X-93774Y379165D01*
X-93580Y378468D01*
X-93348Y377772D01*
X-93038Y377152D01*
X-92690Y376572D01*
X-92342Y376030D01*
X-91955Y375566D01*
X-91568Y375101D01*
X-91219Y374714D01*
X-90871Y374405D01*
X-90562Y374095D01*
X-90329Y373902D01*
X-90097Y373708D01*
X-89981Y373631D01*
X-89942Y373592D01*
X-89555Y373321D01*
X-89091Y373089D01*
X-88627Y372857D01*
X-88085Y372663D01*
X-86924Y372276D01*
X-85685Y371967D01*
X-84370Y371696D01*
X-83015Y371464D01*
X-81661Y371270D01*
X-80267Y371115D01*
X-78990Y370999D01*
X-77752Y370922D01*
X-76630Y370844D01*
X-76088D01*
X-75623Y370806D01*
X-75198D01*
X-74811D01*
X-74462Y370767D01*
X-74192D01*
X-73959D01*
X-73805D01*
X-73688D01*
X-73650D01*
X-72527D01*
X-71444Y370806D01*
X-70438Y370844D01*
X-69431Y370922D01*
X-68464Y370961D01*
X-67574Y371077D01*
X-66722Y371154D01*
X-65871Y371270D01*
X-65097Y371386D01*
X-64362Y371502D01*
X-63665Y371618D01*
X-63007Y371773D01*
X-61769Y372044D01*
X-60685Y372354D01*
X-59756Y372625D01*
X-58982Y372896D01*
X-58325Y373166D01*
X-57783Y373399D01*
X-57396Y373631D01*
X-57125Y373786D01*
X-56931Y373863D01*
X-56893Y373902D01*
X-56273Y374405D01*
X-55732Y374908D01*
X-55228Y375450D01*
X-54842Y375991D01*
X-54493Y376572D01*
X-54184Y377114D01*
X-53951Y377656D01*
X-53758Y378197D01*
X-53642Y378662D01*
X-53526Y379126D01*
X-53448Y379552D01*
X-53371Y379900D01*
Y380210D01*
X-53332Y380403D01*
Y380597D01*
X-53371Y381371D01*
X-53487Y382145D01*
X-53719Y382841D01*
X-53951Y383499D01*
X-54261Y384118D01*
X-54609Y384738D01*
X-54996Y385279D01*
X-55345Y385744D01*
X-55732Y386208D01*
X-56119Y386595D01*
X-56467Y386944D01*
X-56776Y387214D01*
X-57009Y387408D01*
X-57202Y387601D01*
X-57357Y387679D01*
X-57396Y387718D01*
X-57783Y387988D01*
X-58247Y388221D01*
X-58712Y388453D01*
X-59253Y388646D01*
X-60376Y389033D01*
X-61614Y389382D01*
X-62930Y389653D01*
X-64323Y389885D01*
X-65677Y390078D01*
X-67032Y390233D01*
X-68348Y390349D01*
X-69547Y390427D01*
X-70709Y390504D01*
X-71212D01*
X-71676Y390543D01*
X-72102D01*
X-72489Y390581D01*
D02*
G37*
G36*
X84936Y21487D02*
X84665D01*
X84510D01*
X84433D01*
X83465Y21448D01*
X82575Y21371D01*
X81724Y21216D01*
X80950Y21061D01*
X80214Y20867D01*
X79556Y20635D01*
X78937Y20364D01*
X78357Y20132D01*
X77892Y19861D01*
X77467Y19590D01*
X77080Y19358D01*
X76770Y19165D01*
X76538Y19010D01*
X76383Y18855D01*
X76267Y18778D01*
X76228Y18739D01*
X75725Y18197D01*
X75261Y17655D01*
X74874Y17114D01*
X74525Y16533D01*
X74254Y15914D01*
X74022Y15372D01*
X73829Y14792D01*
X73674Y14250D01*
X73519Y13747D01*
X73442Y13282D01*
X73364Y12857D01*
X73326Y12508D01*
Y12237D01*
X73287Y12005D01*
Y11812D01*
X73326Y11038D01*
X73403Y10302D01*
X73558Y9606D01*
X73751Y8909D01*
X73984Y8290D01*
X74216Y7710D01*
X74487Y7168D01*
X74758Y6703D01*
X75028Y6239D01*
X75299Y5852D01*
X75532Y5542D01*
X75764Y5233D01*
X75957Y5039D01*
X76112Y4846D01*
X76189Y4768D01*
X76228Y4730D01*
X76809Y4226D01*
X77428Y3801D01*
X78047Y3414D01*
X78705Y3104D01*
X79324Y2833D01*
X79982Y2601D01*
X80601Y2408D01*
X81182Y2253D01*
X81762Y2137D01*
X82265Y2059D01*
X82730Y1982D01*
X83156Y1943D01*
X83465D01*
X83736Y1905D01*
X83891D01*
X83930D01*
X84897Y1943D01*
X85826Y2021D01*
X86677Y2175D01*
X87529Y2369D01*
X88264Y2601D01*
X88999Y2833D01*
X89657Y3104D01*
X90238Y3414D01*
X90779Y3685D01*
X91244Y3956D01*
X91631Y4188D01*
X91940Y4420D01*
X92211Y4614D01*
X92405Y4768D01*
X92521Y4846D01*
X92560Y4884D01*
X93140Y5465D01*
X93643Y6045D01*
X94108Y6665D01*
X94495Y7284D01*
X94804Y7864D01*
X95075Y8445D01*
X95307Y9025D01*
X95462Y9567D01*
X95617Y10070D01*
X95694Y10535D01*
X95772Y10922D01*
X95849Y11270D01*
Y11579D01*
X95888Y11773D01*
Y11966D01*
X95849Y12702D01*
X95772Y13398D01*
X95617Y14056D01*
X95423Y14675D01*
X95153Y15295D01*
X94920Y15836D01*
X94611Y16340D01*
X94340Y16804D01*
X94069Y17230D01*
X93759Y17617D01*
X93527Y17926D01*
X93295Y18197D01*
X93063Y18429D01*
X92908Y18584D01*
X92831Y18662D01*
X92792Y18700D01*
X92173Y19203D01*
X91553Y19629D01*
X90857Y19977D01*
X90199Y20326D01*
X89464Y20597D01*
X88806Y20790D01*
X88109Y20984D01*
X87451Y21138D01*
X86832Y21255D01*
X86251Y21332D01*
X85748Y21409D01*
X85323Y21448D01*
X84936Y21487D01*
D02*
G37*
G36*
X250751Y55581D02*
X250403D01*
X250132D01*
X249900D01*
X249745D01*
X249629D01*
X249590D01*
X248468D01*
X247384Y55543D01*
X246378Y55504D01*
X245372Y55465D01*
X244443Y55388D01*
X243553Y55310D01*
X242702Y55233D01*
X241889Y55117D01*
X241115Y55040D01*
X240380Y54923D01*
X239722Y54807D01*
X239064Y54691D01*
X238445Y54536D01*
X237903Y54420D01*
X236858Y54150D01*
X235968Y53879D01*
X235233Y53608D01*
X234613Y53376D01*
X234110Y53182D01*
X233762Y52989D01*
X233491Y52834D01*
X233336Y52756D01*
X233298Y52718D01*
X232601Y52176D01*
X231982Y51595D01*
X231440Y51015D01*
X230976Y50396D01*
X230589Y49815D01*
X230240Y49235D01*
X230008Y48654D01*
X229776Y48112D01*
X229621Y47609D01*
X229505Y47145D01*
X229389Y46719D01*
X229350Y46371D01*
X229311Y46061D01*
X229273Y45868D01*
Y45674D01*
X229311Y44900D01*
X229466Y44165D01*
X229660Y43468D01*
X229892Y42772D01*
X230202Y42153D01*
X230550Y41572D01*
X230898Y41030D01*
X231285Y40566D01*
X231672Y40101D01*
X232020Y39714D01*
X232369Y39405D01*
X232678Y39095D01*
X232911Y38902D01*
X233143Y38708D01*
X233259Y38631D01*
X233298Y38592D01*
X233685Y38321D01*
X234149Y38089D01*
X234613Y37857D01*
X235155Y37663D01*
X236316Y37276D01*
X237555Y36967D01*
X238870Y36696D01*
X240225Y36464D01*
X241579Y36270D01*
X242973Y36115D01*
X244250Y35999D01*
X245488Y35922D01*
X246610Y35844D01*
X247152D01*
X247617Y35806D01*
X248042D01*
X248429D01*
X248778Y35767D01*
X249048D01*
X249281D01*
X249435D01*
X249552D01*
X249590D01*
X250713D01*
X251796Y35806D01*
X252802Y35844D01*
X253809Y35922D01*
X254776Y35961D01*
X255666Y36077D01*
X256518Y36154D01*
X257369Y36270D01*
X258143Y36386D01*
X258878Y36502D01*
X259575Y36618D01*
X260233Y36773D01*
X261471Y37044D01*
X262555Y37354D01*
X263484Y37625D01*
X264258Y37895D01*
X264916Y38166D01*
X265457Y38399D01*
X265844Y38631D01*
X266115Y38786D01*
X266309Y38863D01*
X266347Y38902D01*
X266967Y39405D01*
X267508Y39908D01*
X268012Y40450D01*
X268399Y40992D01*
X268747Y41572D01*
X269056Y42114D01*
X269289Y42656D01*
X269482Y43197D01*
X269598Y43662D01*
X269714Y44126D01*
X269792Y44552D01*
X269869Y44900D01*
Y45210D01*
X269908Y45403D01*
Y45597D01*
X269869Y46371D01*
X269753Y47145D01*
X269521Y47841D01*
X269289Y48499D01*
X268979Y49118D01*
X268631Y49738D01*
X268244Y50279D01*
X267895Y50744D01*
X267508Y51208D01*
X267121Y51595D01*
X266773Y51944D01*
X266464Y52215D01*
X266231Y52408D01*
X266038Y52602D01*
X265883Y52679D01*
X265844Y52718D01*
X265457Y52989D01*
X264993Y53221D01*
X264529Y53453D01*
X263987Y53646D01*
X262864Y54033D01*
X261626Y54382D01*
X260310Y54653D01*
X258917Y54885D01*
X257562Y55078D01*
X256208Y55233D01*
X254892Y55349D01*
X253692Y55427D01*
X252531Y55504D01*
X252028D01*
X251564Y55543D01*
X251138D01*
X250751Y55581D01*
D02*
G37*
%LPD*%
D19*
X-312798Y21335D02*
X-7438D01*
X-312798D02*
Y306775D01*
X-7438D01*
Y21335D02*
Y306775D01*
X10442Y-313665D02*
X315802D01*
X10442D02*
Y-28225D01*
X315802D01*
Y-313665D02*
Y-28225D01*
D20*
X-120105Y-55964D02*
X-100112D01*
X-110108D01*
Y-105948D01*
X-100112Y-115945D01*
X-90115D01*
X-80118Y-105948D01*
X-140099Y-115945D02*
X-160092D01*
X-150095D01*
Y-55964D01*
X-140099Y-65961D01*
X-190083Y-55964D02*
X-230070D01*
Y-65961D01*
X-190083Y-105948D01*
Y-115945D01*
X181375Y-380964D02*
X201368D01*
X191372D01*
Y-430948D01*
X201368Y-440945D01*
X211365D01*
X221362Y-430948D01*
X161381Y-440945D02*
X141388D01*
X151385D01*
Y-380964D01*
X161381Y-390961D01*
X71410Y-380964D02*
X91404Y-390961D01*
X111397Y-410955D01*
Y-430948D01*
X101401Y-440945D01*
X81407D01*
X71410Y-430948D01*
Y-420951D01*
X81407Y-410955D01*
X111397D01*
%TF.MD5,9aa192c0642bfd58f38558e8b4236fc3*%
M02*
