%TF.GenerationSoftware,Altium Limited,Altium Designer,18.1.9 (240)*%
G04 Layer_Physical_Order=1*
G04 Layer_Color=255*
%FSLAX26Y26*%
%MOIN*%
%TF.FileFunction,Copper,L1,Top,Signal*%
%TF.Part,Single*%
G01*
G75*
%TA.AperFunction,SMDPad,CuDef*%
%ADD10C,0.120000*%
%TA.AperFunction,Conductor*%
%ADD11C,0.030000*%
%ADD12C,0.010000*%
%ADD13C,0.050000*%
%TA.AperFunction,ComponentPad*%
%ADD14C,0.120000*%
%TA.AperFunction,ViaPad*%
%ADD15C,0.050000*%
%ADD16C,0.157480*%
G36*
X-194000Y145196D02*
X-300000D01*
X-300986Y145000D01*
X-325000D01*
X-555000Y-85000D01*
X-1010000D01*
Y100000D01*
X-690000D01*
X-615000Y175000D01*
X-550000D01*
X-495000Y230000D01*
X-194000D01*
Y145196D01*
D02*
G37*
G36*
X-145000Y-225000D02*
X-190945Y-270945D01*
X-1010000D01*
Y-110000D01*
X-550000D01*
X-300000Y135000D01*
X-145000D01*
Y-225000D01*
D02*
G37*
G36*
X1035000Y-84528D02*
X655000D01*
X523772Y-189804D01*
X375490D01*
Y-158284D01*
Y-39038D01*
X525000Y110472D01*
X1035000D01*
Y-84528D01*
D02*
G37*
G36*
X284706Y-173665D02*
X268371Y-190000D01*
X185000D01*
Y-99528D01*
X284706D01*
Y-173665D01*
D02*
G37*
G36*
X1035000Y-270945D02*
X619055Y-270945D01*
X395000Y-495000D01*
X150000D01*
Y-295490D01*
X285000D01*
X294755Y-293550D01*
X303024Y-288024D01*
X368024Y-223024D01*
X373550Y-214755D01*
X375490Y-205000D01*
Y-200000D01*
X535000D01*
X657222Y-100000D01*
X1035000D01*
Y-270945D01*
D02*
G37*
%LPC*%
G36*
X-720000Y63337D02*
Y30000D01*
X-686663D01*
X-691515Y39078D01*
X-700263Y49737D01*
X-710922Y58484D01*
X-720000Y63337D01*
D02*
G37*
G36*
X-780000D02*
X-789078Y58484D01*
X-799737Y49737D01*
X-808485Y39078D01*
X-813337Y30000D01*
X-780000D01*
Y63337D01*
D02*
G37*
G36*
X-686663Y-30000D02*
X-720000D01*
Y-63337D01*
X-710922Y-58484D01*
X-700263Y-49737D01*
X-691515Y-39078D01*
X-686663Y-30000D01*
D02*
G37*
G36*
X-780000D02*
X-813337D01*
X-808485Y-39078D01*
X-799737Y-49737D01*
X-789078Y-58484D01*
X-780000Y-63337D01*
Y-30000D01*
D02*
G37*
G36*
X-694000Y-130663D02*
Y-164000D01*
X-660663D01*
X-665515Y-154922D01*
X-674263Y-144263D01*
X-684922Y-135516D01*
X-694000Y-130663D01*
D02*
G37*
G36*
X-754000D02*
X-763078Y-135516D01*
X-773737Y-144263D01*
X-782485Y-154922D01*
X-787337Y-164000D01*
X-754000D01*
Y-130663D01*
D02*
G37*
G36*
X-660663Y-224000D02*
X-694000D01*
Y-257337D01*
X-684922Y-252484D01*
X-674263Y-243737D01*
X-665515Y-233078D01*
X-660663Y-224000D01*
D02*
G37*
G36*
X-754000D02*
X-787337D01*
X-782485Y-233078D01*
X-773737Y-243737D01*
X-763078Y-252484D01*
X-754000Y-257337D01*
Y-224000D01*
D02*
G37*
G36*
X780000Y63337D02*
Y30000D01*
X813337D01*
X808485Y39078D01*
X799737Y49737D01*
X789078Y58484D01*
X780000Y63337D01*
D02*
G37*
G36*
X720000D02*
X710922Y58484D01*
X700263Y49737D01*
X691515Y39078D01*
X686663Y30000D01*
X720000D01*
Y63337D01*
D02*
G37*
G36*
X813337Y-30000D02*
X780000D01*
Y-63337D01*
X789078Y-58484D01*
X799737Y-49737D01*
X808485Y-39078D01*
X813337Y-30000D01*
D02*
G37*
G36*
X720000D02*
X686663D01*
X691515Y-39078D01*
X700263Y-49737D01*
X710922Y-58484D01*
X720000Y-63337D01*
Y-30000D01*
D02*
G37*
G36*
X754000Y-130663D02*
Y-164000D01*
X787337D01*
X782485Y-154922D01*
X773737Y-144263D01*
X763078Y-135516D01*
X754000Y-130663D01*
D02*
G37*
G36*
X694000D02*
X684922Y-135516D01*
X674263Y-144263D01*
X665515Y-154922D01*
X660663Y-164000D01*
X694000D01*
Y-130663D01*
D02*
G37*
G36*
X787337Y-224000D02*
X754000D01*
Y-257337D01*
X763078Y-252484D01*
X773737Y-243737D01*
X782485Y-233078D01*
X787337Y-224000D01*
D02*
G37*
G36*
X694000D02*
X660663D01*
X665515Y-233078D01*
X674263Y-243737D01*
X684922Y-252484D01*
X694000Y-257337D01*
Y-224000D01*
D02*
G37*
%LPD*%
D10*
X-530000Y-530000D02*
D03*
D11*
X350000Y-205000D02*
Y-158284D01*
X285000Y-270000D02*
X350000Y-205000D01*
X50000Y-270000D02*
X285000D01*
X-10000Y-330000D02*
X50000Y-270000D01*
X350000Y-158284D02*
Y195000D01*
X-40000Y-360000D02*
X-10000Y-330000D01*
X530000Y375000D02*
X650000D01*
X350000Y195000D02*
X530000Y375000D01*
D12*
X-105000Y-320000D02*
X-5000Y-220000D01*
X-105000Y-360000D02*
Y-320000D01*
X-5000Y-220000D02*
X260000D01*
X300000Y-180000D01*
Y198284D01*
X440000Y338284D01*
Y440000D01*
X530000Y530000D01*
X-530000Y-530000D02*
X-525000Y-525000D01*
D13*
X-335000D01*
X-170000Y-360000D01*
D14*
X724000Y194000D02*
D03*
X-724000Y-194000D02*
D03*
X750000Y0D02*
D03*
X-750000D02*
D03*
X724000Y-194000D02*
D03*
X375000Y649500D02*
D03*
X194000Y724000D02*
D03*
X0Y750000D02*
D03*
X-194000Y724000D02*
D03*
X-375000Y649500D02*
D03*
X-530000Y530000D02*
D03*
X-649500Y375000D02*
D03*
X-724000Y194000D02*
D03*
X530000Y530000D02*
D03*
X650000Y375000D02*
D03*
D15*
X-170000Y-360000D02*
D03*
X-105000D02*
D03*
X-40000D02*
D03*
D16*
X0Y-750000D02*
D03*
X650000Y-375000D02*
D03*
X-649500D02*
D03*
%TF.MD5,2effbd3b12e2896f13a647f725571bd4*%
M02*
