G04*
G04 #@! TF.GenerationSoftware,Altium Limited,Altium Designer,18.1.11 (251)*
G04*
G04 Layer_Color=32896*
%FSLAX25Y25*%
%MOIN*%
G70*
G01*
G75*
%ADD10C,0.01000*%
%ADD25C,0.00787*%
G36*
X-22230Y-1967D02*
X-22352Y-2039D01*
X-22466Y-2118D01*
X-22581Y-2211D01*
X-22681Y-2297D01*
X-22767Y-2383D01*
X-22839Y-2448D01*
X-22861Y-2477D01*
X-22882Y-2498D01*
X-22889Y-2505D01*
X-22896Y-2512D01*
X-23018Y-2663D01*
X-23133Y-2814D01*
X-23234Y-2957D01*
X-23312Y-3100D01*
X-23384Y-3222D01*
X-23413Y-3272D01*
X-23434Y-3315D01*
X-23456Y-3351D01*
X-23463Y-3380D01*
X-23477Y-3394D01*
Y-3401D01*
X-24065D01*
X-24022Y-3294D01*
X-23972Y-3186D01*
X-23922Y-3079D01*
X-23872Y-2978D01*
X-23829Y-2892D01*
X-23793Y-2821D01*
X-23764Y-2778D01*
X-23757Y-2771D01*
Y-2763D01*
X-23678Y-2634D01*
X-23599Y-2520D01*
X-23527Y-2419D01*
X-23463Y-2340D01*
X-23413Y-2269D01*
X-23370Y-2226D01*
X-23341Y-2190D01*
X-23334Y-2183D01*
X-27213D01*
Y-1573D01*
X-22230D01*
Y-1967D01*
D02*
G37*
G36*
X-9223Y-2548D02*
X-9101Y-2462D01*
X-9051Y-2419D01*
X-9001Y-2383D01*
X-8958Y-2348D01*
X-8929Y-2319D01*
X-8907Y-2297D01*
X-8900Y-2290D01*
X-8864Y-2254D01*
X-8828Y-2211D01*
X-8735Y-2111D01*
X-8628Y-1996D01*
X-8520Y-1874D01*
X-8427Y-1760D01*
X-8384Y-1709D01*
X-8341Y-1666D01*
X-8312Y-1630D01*
X-8291Y-1602D01*
X-8276Y-1588D01*
X-8269Y-1580D01*
X-8169Y-1466D01*
X-8076Y-1351D01*
X-7982Y-1251D01*
X-7904Y-1157D01*
X-7825Y-1071D01*
X-7753Y-1000D01*
X-7688Y-928D01*
X-7631Y-871D01*
X-7574Y-813D01*
X-7531Y-770D01*
X-7495Y-734D01*
X-7459Y-698D01*
X-7416Y-662D01*
X-7402Y-648D01*
X-7280Y-548D01*
X-7172Y-462D01*
X-7065Y-390D01*
X-6979Y-333D01*
X-6900Y-290D01*
X-6842Y-261D01*
X-6807Y-247D01*
X-6792Y-240D01*
X-6685Y-197D01*
X-6577Y-168D01*
X-6477Y-139D01*
X-6391Y-125D01*
X-6312Y-118D01*
X-6255Y-111D01*
X-6219D01*
X-6204D01*
X-6097Y-118D01*
X-5996Y-132D01*
X-5896Y-146D01*
X-5810Y-175D01*
X-5638Y-247D01*
X-5502Y-318D01*
X-5437Y-361D01*
X-5387Y-397D01*
X-5337Y-433D01*
X-5301Y-469D01*
X-5272Y-498D01*
X-5243Y-512D01*
X-5236Y-526D01*
X-5229Y-533D01*
X-5158Y-612D01*
X-5093Y-698D01*
X-5043Y-792D01*
X-5000Y-885D01*
X-4928Y-1071D01*
X-4878Y-1258D01*
X-4863Y-1336D01*
X-4849Y-1415D01*
X-4842Y-1487D01*
X-4835Y-1544D01*
X-4828Y-1595D01*
Y-1666D01*
X-4835Y-1795D01*
X-4842Y-1917D01*
X-4863Y-2032D01*
X-4885Y-2140D01*
X-4914Y-2240D01*
X-4942Y-2333D01*
X-4978Y-2419D01*
X-5014Y-2498D01*
X-5050Y-2570D01*
X-5086Y-2627D01*
X-5114Y-2677D01*
X-5143Y-2720D01*
X-5165Y-2756D01*
X-5186Y-2778D01*
X-5193Y-2792D01*
X-5201Y-2799D01*
X-5272Y-2871D01*
X-5351Y-2935D01*
X-5437Y-3000D01*
X-5523Y-3050D01*
X-5695Y-3136D01*
X-5867Y-3194D01*
X-5946Y-3215D01*
X-6025Y-3237D01*
X-6090Y-3251D01*
X-6147Y-3265D01*
X-6197Y-3272D01*
X-6233D01*
X-6255Y-3280D01*
X-6262D01*
X-6326Y-2656D01*
X-6161Y-2641D01*
X-6018Y-2613D01*
X-5889Y-2570D01*
X-5788Y-2520D01*
X-5702Y-2477D01*
X-5645Y-2434D01*
X-5609Y-2405D01*
X-5595Y-2390D01*
X-5509Y-2283D01*
X-5444Y-2168D01*
X-5394Y-2046D01*
X-5365Y-1939D01*
X-5344Y-1838D01*
X-5337Y-1752D01*
X-5330Y-1724D01*
Y-1681D01*
X-5337Y-1530D01*
X-5365Y-1394D01*
X-5408Y-1279D01*
X-5451Y-1179D01*
X-5502Y-1100D01*
X-5537Y-1050D01*
X-5566Y-1014D01*
X-5581Y-1000D01*
X-5681Y-914D01*
X-5781Y-849D01*
X-5882Y-799D01*
X-5982Y-770D01*
X-6061Y-749D01*
X-6133Y-741D01*
X-6176Y-734D01*
X-6183D01*
X-6190D01*
X-6319Y-749D01*
X-6455Y-777D01*
X-6577Y-828D01*
X-6692Y-878D01*
X-6785Y-935D01*
X-6864Y-985D01*
X-6893Y-1000D01*
X-6914Y-1014D01*
X-6921Y-1028D01*
X-6928D01*
X-7007Y-1086D01*
X-7086Y-1157D01*
X-7172Y-1236D01*
X-7258Y-1322D01*
X-7430Y-1501D01*
X-7603Y-1681D01*
X-7681Y-1774D01*
X-7753Y-1853D01*
X-7818Y-1932D01*
X-7875Y-1996D01*
X-7918Y-2046D01*
X-7954Y-2089D01*
X-7975Y-2118D01*
X-7982Y-2125D01*
X-8133Y-2304D01*
X-8276Y-2469D01*
X-8405Y-2606D01*
X-8513Y-2713D01*
X-8606Y-2806D01*
X-8671Y-2871D01*
X-8714Y-2907D01*
X-8721Y-2921D01*
X-8728D01*
X-8850Y-3022D01*
X-8965Y-3100D01*
X-9080Y-3172D01*
X-9180Y-3229D01*
X-9266Y-3272D01*
X-9330Y-3301D01*
X-9373Y-3315D01*
X-9381Y-3323D01*
X-9388D01*
X-9467Y-3351D01*
X-9538Y-3366D01*
X-9610Y-3380D01*
X-9675Y-3387D01*
X-9732Y-3394D01*
X-9775D01*
X-9804D01*
X-9811D01*
Y-103D01*
X-9223D01*
Y-2548D01*
D02*
G37*
G36*
X-24309Y36319D02*
X-24166Y36304D01*
X-24029Y36290D01*
X-23907Y36276D01*
X-23793Y36261D01*
X-23685Y36240D01*
X-23592Y36218D01*
X-23513Y36197D01*
X-23441Y36182D01*
X-23377Y36161D01*
X-23327Y36147D01*
X-23291Y36132D01*
X-23262Y36118D01*
X-23248Y36111D01*
X-23241D01*
X-23068Y36025D01*
X-22918Y35932D01*
X-22789Y35824D01*
X-22681Y35731D01*
X-22603Y35638D01*
X-22545Y35566D01*
X-22524Y35537D01*
X-22509Y35516D01*
X-22495Y35508D01*
Y35501D01*
X-22409Y35351D01*
X-22344Y35200D01*
X-22294Y35050D01*
X-22265Y34913D01*
X-22244Y34791D01*
X-22237Y34741D01*
Y34705D01*
X-22230Y34670D01*
Y34619D01*
X-22237Y34497D01*
X-22251Y34383D01*
X-22273Y34268D01*
X-22301Y34168D01*
X-22380Y33974D01*
X-22416Y33888D01*
X-22459Y33816D01*
X-22509Y33745D01*
X-22545Y33687D01*
X-22588Y33630D01*
X-22624Y33587D01*
X-22653Y33551D01*
X-22674Y33530D01*
X-22689Y33515D01*
X-22696Y33508D01*
X-22782Y33429D01*
X-22882Y33365D01*
X-22975Y33300D01*
X-23076Y33250D01*
X-23183Y33207D01*
X-23284Y33171D01*
X-23470Y33121D01*
X-23563Y33099D01*
X-23642Y33085D01*
X-23721Y33078D01*
X-23786Y33071D01*
X-23836Y33064D01*
X-23872D01*
X-23900D01*
X-23907D01*
X-24044Y33071D01*
X-24166Y33085D01*
X-24287Y33099D01*
X-24402Y33128D01*
X-24502Y33164D01*
X-24603Y33200D01*
X-24689Y33236D01*
X-24768Y33279D01*
X-24839Y33314D01*
X-24904Y33350D01*
X-24954Y33386D01*
X-25004Y33422D01*
X-25040Y33451D01*
X-25062Y33465D01*
X-25076Y33479D01*
X-25083Y33487D01*
X-25162Y33565D01*
X-25227Y33651D01*
X-25291Y33737D01*
X-25341Y33831D01*
X-25385Y33917D01*
X-25420Y34003D01*
X-25471Y34168D01*
X-25492Y34239D01*
X-25506Y34311D01*
X-25513Y34369D01*
X-25521Y34426D01*
X-25528Y34469D01*
Y34526D01*
X-25521Y34662D01*
X-25499Y34791D01*
X-25471Y34906D01*
X-25435Y35014D01*
X-25406Y35093D01*
X-25377Y35157D01*
X-25356Y35200D01*
X-25349Y35214D01*
X-25277Y35329D01*
X-25198Y35430D01*
X-25119Y35516D01*
X-25047Y35587D01*
X-24976Y35638D01*
X-24926Y35681D01*
X-24890Y35709D01*
X-24875Y35716D01*
X-24933D01*
X-24969D01*
X-24990D01*
X-24997D01*
X-25141Y35709D01*
X-25277Y35702D01*
X-25399Y35688D01*
X-25513Y35673D01*
X-25607Y35652D01*
X-25678Y35638D01*
X-25707Y35630D01*
X-25729D01*
X-25736Y35623D01*
X-25743D01*
X-25872Y35587D01*
X-25987Y35552D01*
X-26087Y35516D01*
X-26173Y35480D01*
X-26238Y35451D01*
X-26288Y35422D01*
X-26324Y35408D01*
X-26331Y35401D01*
X-26410Y35344D01*
X-26474Y35286D01*
X-26532Y35229D01*
X-26582Y35171D01*
X-26625Y35129D01*
X-26654Y35085D01*
X-26668Y35057D01*
X-26675Y35050D01*
X-26718Y34971D01*
X-26747Y34885D01*
X-26768Y34806D01*
X-26783Y34727D01*
X-26790Y34662D01*
X-26797Y34612D01*
Y34562D01*
X-26790Y34447D01*
X-26768Y34340D01*
X-26740Y34247D01*
X-26704Y34168D01*
X-26675Y34110D01*
X-26646Y34060D01*
X-26625Y34032D01*
X-26618Y34024D01*
X-26539Y33953D01*
X-26446Y33895D01*
X-26345Y33845D01*
X-26245Y33809D01*
X-26159Y33781D01*
X-26080Y33759D01*
X-26051Y33752D01*
X-26037D01*
X-26023Y33745D01*
X-26015D01*
X-26066Y33157D01*
X-26274Y33200D01*
X-26453Y33257D01*
X-26610Y33329D01*
X-26740Y33400D01*
X-26840Y33472D01*
X-26883Y33508D01*
X-26919Y33537D01*
X-26940Y33558D01*
X-26962Y33580D01*
X-26969Y33587D01*
X-26976Y33594D01*
X-27034Y33666D01*
X-27084Y33745D01*
X-27163Y33902D01*
X-27220Y34060D01*
X-27256Y34211D01*
X-27285Y34347D01*
X-27292Y34404D01*
Y34455D01*
X-27299Y34490D01*
Y34548D01*
X-27285Y34749D01*
X-27256Y34928D01*
X-27206Y35093D01*
X-27148Y35229D01*
X-27127Y35286D01*
X-27098Y35344D01*
X-27069Y35387D01*
X-27048Y35430D01*
X-27034Y35458D01*
X-27019Y35480D01*
X-27005Y35494D01*
Y35501D01*
X-26883Y35645D01*
X-26747Y35774D01*
X-26603Y35874D01*
X-26467Y35960D01*
X-26345Y36032D01*
X-26288Y36061D01*
X-26245Y36082D01*
X-26202Y36096D01*
X-26173Y36111D01*
X-26159Y36118D01*
X-26152D01*
X-26044Y36154D01*
X-25922Y36190D01*
X-25678Y36240D01*
X-25420Y36276D01*
X-25177Y36297D01*
X-25069Y36312D01*
X-24961Y36319D01*
X-24868D01*
X-24789Y36326D01*
X-24725D01*
X-24675D01*
X-24639D01*
X-24632D01*
X-24467D01*
X-24309Y36319D01*
D02*
G37*
G36*
X-7101Y39689D02*
X-6986D01*
X-6871Y39681D01*
X-6771Y39667D01*
X-6670Y39660D01*
X-6584Y39653D01*
X-6505Y39638D01*
X-6434Y39631D01*
X-6369Y39617D01*
X-6319Y39610D01*
X-6276Y39603D01*
X-6240Y39595D01*
X-6219Y39588D01*
X-6204Y39581D01*
X-6197D01*
X-6039Y39538D01*
X-5896Y39488D01*
X-5774Y39430D01*
X-5667Y39388D01*
X-5573Y39337D01*
X-5509Y39309D01*
X-5473Y39280D01*
X-5459Y39273D01*
X-5351Y39194D01*
X-5258Y39115D01*
X-5179Y39029D01*
X-5107Y38950D01*
X-5057Y38878D01*
X-5021Y38821D01*
X-5000Y38785D01*
X-4993Y38778D01*
Y38771D01*
X-4935Y38656D01*
X-4899Y38534D01*
X-4871Y38419D01*
X-4849Y38312D01*
X-4835Y38219D01*
X-4828Y38140D01*
Y38075D01*
X-4842Y37882D01*
X-4871Y37703D01*
X-4921Y37552D01*
X-4971Y37423D01*
X-5028Y37315D01*
X-5050Y37272D01*
X-5079Y37236D01*
X-5093Y37208D01*
X-5107Y37186D01*
X-5122Y37179D01*
Y37172D01*
X-5236Y37043D01*
X-5373Y36935D01*
X-5509Y36842D01*
X-5638Y36770D01*
X-5760Y36713D01*
X-5810Y36684D01*
X-5860Y36670D01*
X-5896Y36656D01*
X-5925Y36641D01*
X-5939Y36634D01*
X-5946D01*
X-6054Y36606D01*
X-6161Y36577D01*
X-6398Y36534D01*
X-6634Y36498D01*
X-6857Y36476D01*
X-6964Y36469D01*
X-7057Y36462D01*
X-7144D01*
X-7222Y36455D01*
X-7280D01*
X-7330D01*
X-7359D01*
X-7366D01*
X-7617Y36462D01*
X-7853Y36476D01*
X-8068Y36498D01*
X-8269Y36534D01*
X-8456Y36570D01*
X-8621Y36613D01*
X-8771Y36656D01*
X-8900Y36699D01*
X-9015Y36742D01*
X-9115Y36792D01*
X-9201Y36828D01*
X-9266Y36864D01*
X-9323Y36900D01*
X-9359Y36921D01*
X-9381Y36935D01*
X-9388Y36942D01*
X-9474Y37021D01*
X-9553Y37107D01*
X-9624Y37201D01*
X-9682Y37294D01*
X-9732Y37387D01*
X-9775Y37480D01*
X-9804Y37573D01*
X-9832Y37659D01*
X-9854Y37745D01*
X-9868Y37824D01*
X-9883Y37896D01*
X-9890Y37953D01*
X-9897Y38004D01*
Y38075D01*
X-9883Y38269D01*
X-9854Y38448D01*
X-9804Y38599D01*
X-9753Y38728D01*
X-9703Y38835D01*
X-9675Y38871D01*
X-9653Y38907D01*
X-9639Y38936D01*
X-9624Y38957D01*
X-9610Y38964D01*
Y38972D01*
X-9488Y39101D01*
X-9359Y39208D01*
X-9216Y39301D01*
X-9087Y39373D01*
X-8965Y39430D01*
X-8915Y39459D01*
X-8864Y39474D01*
X-8828Y39488D01*
X-8800Y39502D01*
X-8785Y39509D01*
X-8778D01*
X-8671Y39545D01*
X-8563Y39574D01*
X-8334Y39617D01*
X-8097Y39653D01*
X-7868Y39674D01*
X-7767Y39681D01*
X-7674Y39689D01*
X-7588D01*
X-7509Y39696D01*
X-7452D01*
X-7402D01*
X-7373D01*
X-7366D01*
X-7230D01*
X-7101Y39689D01*
D02*
G37*
G36*
X-4828Y34497D02*
X-4950Y34426D01*
X-5064Y34347D01*
X-5179Y34254D01*
X-5279Y34168D01*
X-5365Y34082D01*
X-5437Y34017D01*
X-5459Y33988D01*
X-5480Y33967D01*
X-5487Y33960D01*
X-5494Y33953D01*
X-5616Y33802D01*
X-5731Y33651D01*
X-5832Y33508D01*
X-5910Y33365D01*
X-5982Y33243D01*
X-6011Y33193D01*
X-6032Y33149D01*
X-6054Y33114D01*
X-6061Y33085D01*
X-6075Y33071D01*
Y33064D01*
X-6663D01*
X-6620Y33171D01*
X-6570Y33279D01*
X-6520Y33386D01*
X-6470Y33487D01*
X-6427Y33573D01*
X-6391Y33644D01*
X-6362Y33687D01*
X-6355Y33694D01*
Y33702D01*
X-6276Y33831D01*
X-6197Y33945D01*
X-6125Y34046D01*
X-6061Y34125D01*
X-6011Y34196D01*
X-5968Y34239D01*
X-5939Y34275D01*
X-5932Y34282D01*
X-9811D01*
Y34892D01*
X-4828D01*
Y34497D01*
D02*
G37*
G36*
X10094Y-35467D02*
X9973Y-35539D01*
X9858Y-35618D01*
X9743Y-35711D01*
X9643Y-35797D01*
X9557Y-35883D01*
X9485Y-35948D01*
X9463Y-35977D01*
X9442Y-35998D01*
X9435Y-36005D01*
X9427Y-36012D01*
X9306Y-36163D01*
X9191Y-36314D01*
X9091Y-36457D01*
X9012Y-36600D01*
X8940Y-36722D01*
X8911Y-36772D01*
X8890Y-36815D01*
X8868Y-36851D01*
X8861Y-36880D01*
X8847Y-36894D01*
Y-36902D01*
X8259D01*
X8302Y-36794D01*
X8352Y-36686D01*
X8402Y-36579D01*
X8452Y-36478D01*
X8495Y-36392D01*
X8531Y-36321D01*
X8560Y-36278D01*
X8567Y-36270D01*
Y-36263D01*
X8646Y-36134D01*
X8725Y-36020D01*
X8797Y-35919D01*
X8861Y-35840D01*
X8911Y-35769D01*
X8954Y-35726D01*
X8983Y-35690D01*
X8990Y-35683D01*
X5111D01*
Y-35073D01*
X10094D01*
Y-35467D01*
D02*
G37*
G36*
X23101Y-36048D02*
X23223Y-35962D01*
X23273Y-35919D01*
X23323Y-35883D01*
X23366Y-35847D01*
X23395Y-35819D01*
X23417Y-35797D01*
X23424Y-35790D01*
X23460Y-35754D01*
X23495Y-35711D01*
X23589Y-35611D01*
X23696Y-35496D01*
X23804Y-35374D01*
X23897Y-35260D01*
X23940Y-35209D01*
X23983Y-35166D01*
X24012Y-35131D01*
X24033Y-35102D01*
X24048Y-35087D01*
X24055Y-35080D01*
X24155Y-34966D01*
X24248Y-34851D01*
X24341Y-34751D01*
X24420Y-34657D01*
X24499Y-34571D01*
X24571Y-34499D01*
X24635Y-34428D01*
X24693Y-34370D01*
X24750Y-34313D01*
X24793Y-34270D01*
X24829Y-34234D01*
X24865Y-34198D01*
X24908Y-34163D01*
X24922Y-34148D01*
X25044Y-34048D01*
X25152Y-33962D01*
X25259Y-33890D01*
X25345Y-33833D01*
X25424Y-33790D01*
X25482Y-33761D01*
X25517Y-33747D01*
X25532Y-33740D01*
X25639Y-33696D01*
X25747Y-33668D01*
X25847Y-33639D01*
X25933Y-33625D01*
X26012Y-33618D01*
X26070Y-33610D01*
X26105D01*
X26120D01*
X26227Y-33618D01*
X26328Y-33632D01*
X26428Y-33646D01*
X26514Y-33675D01*
X26686Y-33747D01*
X26822Y-33818D01*
X26887Y-33861D01*
X26937Y-33897D01*
X26987Y-33933D01*
X27023Y-33969D01*
X27052Y-33998D01*
X27081Y-34012D01*
X27088Y-34026D01*
X27095Y-34034D01*
X27167Y-34112D01*
X27231Y-34198D01*
X27281Y-34292D01*
X27324Y-34385D01*
X27396Y-34571D01*
X27446Y-34758D01*
X27461Y-34837D01*
X27475Y-34915D01*
X27482Y-34987D01*
X27489Y-35045D01*
X27496Y-35095D01*
Y-35166D01*
X27489Y-35295D01*
X27482Y-35417D01*
X27461Y-35532D01*
X27439Y-35640D01*
X27410Y-35740D01*
X27382Y-35833D01*
X27346Y-35919D01*
X27310Y-35998D01*
X27274Y-36070D01*
X27238Y-36127D01*
X27209Y-36177D01*
X27181Y-36220D01*
X27159Y-36256D01*
X27138Y-36278D01*
X27131Y-36292D01*
X27123Y-36299D01*
X27052Y-36371D01*
X26973Y-36435D01*
X26887Y-36500D01*
X26801Y-36550D01*
X26629Y-36636D01*
X26457Y-36694D01*
X26378Y-36715D01*
X26299Y-36737D01*
X26234Y-36751D01*
X26177Y-36765D01*
X26127Y-36772D01*
X26091D01*
X26070Y-36780D01*
X26062D01*
X25998Y-36156D01*
X26163Y-36141D01*
X26306Y-36113D01*
X26435Y-36070D01*
X26536Y-36020D01*
X26622Y-35977D01*
X26679Y-35934D01*
X26715Y-35905D01*
X26729Y-35890D01*
X26815Y-35783D01*
X26880Y-35668D01*
X26930Y-35546D01*
X26959Y-35439D01*
X26980Y-35338D01*
X26987Y-35252D01*
X26994Y-35224D01*
Y-35181D01*
X26987Y-35030D01*
X26959Y-34894D01*
X26916Y-34779D01*
X26873Y-34679D01*
X26822Y-34600D01*
X26787Y-34550D01*
X26758Y-34514D01*
X26744Y-34499D01*
X26643Y-34413D01*
X26543Y-34349D01*
X26442Y-34299D01*
X26342Y-34270D01*
X26263Y-34249D01*
X26191Y-34241D01*
X26148Y-34234D01*
X26141D01*
X26134D01*
X26005Y-34249D01*
X25869Y-34277D01*
X25747Y-34328D01*
X25632Y-34378D01*
X25539Y-34435D01*
X25460Y-34485D01*
X25431Y-34499D01*
X25410Y-34514D01*
X25403Y-34528D01*
X25396D01*
X25317Y-34586D01*
X25238Y-34657D01*
X25152Y-34736D01*
X25066Y-34822D01*
X24894Y-35001D01*
X24722Y-35181D01*
X24643Y-35274D01*
X24571Y-35353D01*
X24507Y-35432D01*
X24449Y-35496D01*
X24406Y-35546D01*
X24370Y-35589D01*
X24349Y-35618D01*
X24341Y-35625D01*
X24191Y-35805D01*
X24048Y-35969D01*
X23919Y-36106D01*
X23811Y-36213D01*
X23718Y-36306D01*
X23653Y-36371D01*
X23610Y-36407D01*
X23603Y-36421D01*
X23596D01*
X23474Y-36522D01*
X23359Y-36600D01*
X23245Y-36672D01*
X23144Y-36729D01*
X23058Y-36772D01*
X22994Y-36801D01*
X22951Y-36815D01*
X22943Y-36823D01*
X22936D01*
X22857Y-36851D01*
X22786Y-36866D01*
X22714Y-36880D01*
X22649Y-36887D01*
X22592Y-36894D01*
X22549D01*
X22520D01*
X22513D01*
Y-33603D01*
X23101D01*
Y-36048D01*
D02*
G37*
G36*
X8015Y2819D02*
X8158Y2804D01*
X8295Y2790D01*
X8417Y2776D01*
X8531Y2761D01*
X8639Y2740D01*
X8732Y2718D01*
X8811Y2697D01*
X8883Y2682D01*
X8947Y2661D01*
X8997Y2647D01*
X9033Y2632D01*
X9062Y2618D01*
X9076Y2611D01*
X9083D01*
X9256Y2525D01*
X9406Y2431D01*
X9535Y2324D01*
X9643Y2231D01*
X9721Y2138D01*
X9779Y2066D01*
X9800Y2037D01*
X9815Y2016D01*
X9829Y2008D01*
Y2001D01*
X9915Y1851D01*
X9980Y1700D01*
X10030Y1550D01*
X10058Y1413D01*
X10080Y1292D01*
X10087Y1241D01*
Y1205D01*
X10094Y1170D01*
Y1119D01*
X10087Y998D01*
X10073Y883D01*
X10051Y768D01*
X10023Y668D01*
X9944Y474D01*
X9908Y388D01*
X9865Y316D01*
X9815Y245D01*
X9779Y187D01*
X9736Y130D01*
X9700Y87D01*
X9671Y51D01*
X9650Y30D01*
X9635Y15D01*
X9628Y8D01*
X9542Y-71D01*
X9442Y-135D01*
X9349Y-200D01*
X9248Y-250D01*
X9141Y-293D01*
X9040Y-329D01*
X8854Y-379D01*
X8761Y-401D01*
X8682Y-415D01*
X8603Y-422D01*
X8539Y-429D01*
X8488Y-436D01*
X8452D01*
X8424D01*
X8417D01*
X8280Y-429D01*
X8158Y-415D01*
X8037Y-401D01*
X7922Y-372D01*
X7822Y-336D01*
X7721Y-300D01*
X7635Y-264D01*
X7556Y-221D01*
X7485Y-186D01*
X7420Y-150D01*
X7370Y-114D01*
X7320Y-78D01*
X7284Y-49D01*
X7262Y-35D01*
X7248Y-21D01*
X7241Y-13D01*
X7162Y65D01*
X7097Y151D01*
X7033Y237D01*
X6983Y331D01*
X6939Y417D01*
X6904Y503D01*
X6854Y668D01*
X6832Y739D01*
X6818Y811D01*
X6810Y868D01*
X6803Y926D01*
X6796Y969D01*
Y1026D01*
X6803Y1162D01*
X6825Y1292D01*
X6854Y1406D01*
X6889Y1514D01*
X6918Y1593D01*
X6947Y1657D01*
X6968Y1700D01*
X6975Y1715D01*
X7047Y1829D01*
X7126Y1930D01*
X7205Y2016D01*
X7277Y2087D01*
X7348Y2138D01*
X7398Y2181D01*
X7434Y2209D01*
X7449Y2216D01*
X7391D01*
X7355D01*
X7334D01*
X7327D01*
X7183Y2209D01*
X7047Y2202D01*
X6925Y2188D01*
X6810Y2173D01*
X6717Y2152D01*
X6646Y2138D01*
X6617Y2130D01*
X6595D01*
X6588Y2123D01*
X6581D01*
X6452Y2087D01*
X6337Y2052D01*
X6237Y2016D01*
X6151Y1980D01*
X6086Y1951D01*
X6036Y1922D01*
X6000Y1908D01*
X5993Y1901D01*
X5914Y1844D01*
X5850Y1786D01*
X5792Y1729D01*
X5742Y1671D01*
X5699Y1629D01*
X5671Y1585D01*
X5656Y1557D01*
X5649Y1550D01*
X5606Y1471D01*
X5577Y1385D01*
X5556Y1306D01*
X5541Y1227D01*
X5534Y1162D01*
X5527Y1112D01*
Y1062D01*
X5534Y947D01*
X5556Y840D01*
X5584Y747D01*
X5620Y668D01*
X5649Y610D01*
X5678Y560D01*
X5699Y532D01*
X5706Y524D01*
X5785Y453D01*
X5878Y395D01*
X5979Y345D01*
X6079Y309D01*
X6165Y280D01*
X6244Y259D01*
X6273Y252D01*
X6287D01*
X6301Y245D01*
X6309D01*
X6258Y-343D01*
X6050Y-300D01*
X5871Y-243D01*
X5714Y-171D01*
X5584Y-100D01*
X5484Y-28D01*
X5441Y8D01*
X5405Y37D01*
X5384Y58D01*
X5362Y80D01*
X5355Y87D01*
X5348Y94D01*
X5290Y166D01*
X5240Y245D01*
X5161Y402D01*
X5104Y560D01*
X5068Y711D01*
X5040Y847D01*
X5032Y904D01*
Y955D01*
X5025Y990D01*
Y1048D01*
X5040Y1249D01*
X5068Y1428D01*
X5118Y1593D01*
X5176Y1729D01*
X5197Y1786D01*
X5226Y1844D01*
X5255Y1887D01*
X5276Y1930D01*
X5290Y1958D01*
X5305Y1980D01*
X5319Y1994D01*
Y2001D01*
X5441Y2145D01*
X5577Y2274D01*
X5721Y2374D01*
X5857Y2460D01*
X5979Y2532D01*
X6036Y2561D01*
X6079Y2582D01*
X6122Y2596D01*
X6151Y2611D01*
X6165Y2618D01*
X6172D01*
X6280Y2654D01*
X6402Y2690D01*
X6646Y2740D01*
X6904Y2776D01*
X7147Y2797D01*
X7255Y2812D01*
X7363Y2819D01*
X7456D01*
X7535Y2826D01*
X7599D01*
X7649D01*
X7685D01*
X7692D01*
X7857D01*
X8015Y2819D01*
D02*
G37*
G36*
X25223Y6189D02*
X25338D01*
X25453Y6181D01*
X25553Y6167D01*
X25654Y6160D01*
X25740Y6153D01*
X25819Y6138D01*
X25890Y6131D01*
X25955Y6117D01*
X26005Y6110D01*
X26048Y6103D01*
X26084Y6095D01*
X26105Y6088D01*
X26120Y6081D01*
X26127D01*
X26285Y6038D01*
X26428Y5988D01*
X26550Y5931D01*
X26658Y5887D01*
X26751Y5837D01*
X26815Y5809D01*
X26851Y5780D01*
X26865Y5773D01*
X26973Y5694D01*
X27066Y5615D01*
X27145Y5529D01*
X27217Y5450D01*
X27267Y5378D01*
X27303Y5321D01*
X27324Y5285D01*
X27331Y5278D01*
Y5271D01*
X27389Y5156D01*
X27425Y5034D01*
X27453Y4919D01*
X27475Y4812D01*
X27489Y4719D01*
X27496Y4640D01*
Y4575D01*
X27482Y4382D01*
X27453Y4202D01*
X27403Y4052D01*
X27353Y3923D01*
X27296Y3815D01*
X27274Y3772D01*
X27245Y3736D01*
X27231Y3708D01*
X27217Y3686D01*
X27202Y3679D01*
Y3672D01*
X27088Y3543D01*
X26951Y3435D01*
X26815Y3342D01*
X26686Y3270D01*
X26564Y3213D01*
X26514Y3184D01*
X26464Y3170D01*
X26428Y3156D01*
X26399Y3141D01*
X26385Y3134D01*
X26378D01*
X26270Y3105D01*
X26163Y3077D01*
X25926Y3034D01*
X25690Y2998D01*
X25467Y2976D01*
X25360Y2969D01*
X25267Y2962D01*
X25180D01*
X25102Y2955D01*
X25044D01*
X24994D01*
X24965D01*
X24958D01*
X24707Y2962D01*
X24471Y2976D01*
X24256Y2998D01*
X24055Y3034D01*
X23868Y3070D01*
X23703Y3113D01*
X23553Y3156D01*
X23424Y3199D01*
X23309Y3242D01*
X23209Y3292D01*
X23123Y3328D01*
X23058Y3364D01*
X23001Y3399D01*
X22965Y3421D01*
X22943Y3435D01*
X22936Y3443D01*
X22850Y3521D01*
X22771Y3607D01*
X22700Y3701D01*
X22642Y3794D01*
X22592Y3887D01*
X22549Y3980D01*
X22520Y4073D01*
X22492Y4160D01*
X22470Y4245D01*
X22456Y4324D01*
X22442Y4396D01*
X22434Y4453D01*
X22427Y4504D01*
Y4575D01*
X22442Y4769D01*
X22470Y4948D01*
X22520Y5099D01*
X22571Y5228D01*
X22621Y5335D01*
X22649Y5371D01*
X22671Y5407D01*
X22685Y5436D01*
X22700Y5457D01*
X22714Y5464D01*
Y5472D01*
X22836Y5601D01*
X22965Y5708D01*
X23108Y5801D01*
X23237Y5873D01*
X23359Y5931D01*
X23409Y5959D01*
X23460Y5974D01*
X23495Y5988D01*
X23524Y6002D01*
X23539Y6009D01*
X23546D01*
X23653Y6045D01*
X23761Y6074D01*
X23990Y6117D01*
X24227Y6153D01*
X24456Y6174D01*
X24557Y6181D01*
X24650Y6189D01*
X24736D01*
X24815Y6196D01*
X24872D01*
X24922D01*
X24951D01*
X24958D01*
X25094D01*
X25223Y6189D01*
D02*
G37*
G36*
X27496Y998D02*
X27375Y926D01*
X27260Y847D01*
X27145Y754D01*
X27045Y668D01*
X26959Y582D01*
X26887Y517D01*
X26865Y488D01*
X26844Y467D01*
X26837Y460D01*
X26829Y453D01*
X26708Y302D01*
X26593Y151D01*
X26493Y8D01*
X26414Y-135D01*
X26342Y-257D01*
X26313Y-307D01*
X26292Y-350D01*
X26270Y-386D01*
X26263Y-415D01*
X26249Y-429D01*
Y-436D01*
X25661D01*
X25704Y-329D01*
X25754Y-221D01*
X25804Y-114D01*
X25854Y-13D01*
X25897Y73D01*
X25933Y144D01*
X25962Y187D01*
X25969Y195D01*
Y202D01*
X26048Y331D01*
X26127Y445D01*
X26199Y546D01*
X26263Y625D01*
X26313Y696D01*
X26356Y739D01*
X26385Y775D01*
X26392Y782D01*
X22513D01*
Y1392D01*
X27496D01*
Y998D01*
D02*
G37*
%LPC*%
G36*
X-23829Y35652D02*
X-23857D01*
X-23872D01*
X-23879D01*
X-24065Y35638D01*
X-24230Y35609D01*
X-24366Y35566D01*
X-24481Y35516D01*
X-24574Y35458D01*
X-24639Y35415D01*
X-24682Y35387D01*
X-24696Y35372D01*
X-24796Y35265D01*
X-24868Y35150D01*
X-24918Y35035D01*
X-24954Y34920D01*
X-24976Y34827D01*
X-24983Y34749D01*
X-24990Y34720D01*
Y34677D01*
X-24976Y34526D01*
X-24947Y34390D01*
X-24897Y34268D01*
X-24839Y34161D01*
X-24789Y34082D01*
X-24739Y34017D01*
X-24711Y33981D01*
X-24696Y33967D01*
X-24581Y33874D01*
X-24452Y33802D01*
X-24323Y33759D01*
X-24201Y33723D01*
X-24094Y33702D01*
X-24051Y33694D01*
X-24008D01*
X-23972Y33687D01*
X-23950D01*
X-23936D01*
X-23929D01*
X-23742Y33702D01*
X-23570Y33730D01*
X-23420Y33781D01*
X-23298Y33838D01*
X-23198Y33888D01*
X-23126Y33938D01*
X-23104Y33953D01*
X-23083Y33967D01*
X-23076Y33981D01*
X-23068D01*
X-23011Y34039D01*
X-22954Y34096D01*
X-22875Y34218D01*
X-22810Y34340D01*
X-22775Y34455D01*
X-22746Y34548D01*
X-22739Y34627D01*
X-22732Y34655D01*
Y34770D01*
X-22746Y34842D01*
X-22782Y34971D01*
X-22832Y35085D01*
X-22882Y35186D01*
X-22940Y35265D01*
X-22990Y35322D01*
X-23025Y35358D01*
X-23033Y35372D01*
X-23040D01*
X-23162Y35465D01*
X-23298Y35537D01*
X-23441Y35587D01*
X-23578Y35616D01*
X-23692Y35638D01*
X-23742Y35645D01*
X-23793D01*
X-23829Y35652D01*
D02*
G37*
G36*
X-7251Y39072D02*
X-7316D01*
X-7351D01*
X-7359D01*
X-7366D01*
X-7588D01*
X-7789Y39058D01*
X-7968Y39043D01*
X-8140Y39029D01*
X-8284Y39007D01*
X-8420Y38979D01*
X-8535Y38950D01*
X-8642Y38929D01*
X-8728Y38900D01*
X-8800Y38871D01*
X-8864Y38850D01*
X-8915Y38821D01*
X-8950Y38807D01*
X-8972Y38792D01*
X-8986Y38778D01*
X-8993D01*
X-9065Y38721D01*
X-9122Y38663D01*
X-9180Y38606D01*
X-9223Y38549D01*
X-9295Y38427D01*
X-9345Y38319D01*
X-9373Y38219D01*
X-9388Y38147D01*
X-9395Y38118D01*
Y38075D01*
X-9388Y37997D01*
X-9381Y37925D01*
X-9330Y37789D01*
X-9266Y37667D01*
X-9194Y37559D01*
X-9122Y37480D01*
X-9058Y37416D01*
X-9008Y37380D01*
X-9001Y37365D01*
X-8993D01*
X-8907Y37315D01*
X-8807Y37272D01*
X-8692Y37229D01*
X-8570Y37201D01*
X-8441Y37172D01*
X-8305Y37150D01*
X-8026Y37115D01*
X-7896Y37100D01*
X-7774Y37093D01*
X-7660Y37086D01*
X-7567D01*
X-7481Y37079D01*
X-7416D01*
X-7380D01*
X-7366D01*
X-7144Y37086D01*
X-6943Y37093D01*
X-6756Y37107D01*
X-6584Y37129D01*
X-6434Y37150D01*
X-6297Y37179D01*
X-6176Y37208D01*
X-6068Y37236D01*
X-5975Y37265D01*
X-5896Y37287D01*
X-5832Y37315D01*
X-5774Y37337D01*
X-5738Y37358D01*
X-5710Y37373D01*
X-5695Y37387D01*
X-5688D01*
X-5624Y37437D01*
X-5566Y37487D01*
X-5523Y37545D01*
X-5480Y37602D01*
X-5416Y37717D01*
X-5373Y37824D01*
X-5351Y37918D01*
X-5337Y37997D01*
X-5330Y38025D01*
Y38068D01*
X-5337Y38147D01*
X-5344Y38226D01*
X-5365Y38298D01*
X-5394Y38362D01*
X-5459Y38484D01*
X-5530Y38592D01*
X-5609Y38670D01*
X-5674Y38735D01*
X-5702Y38756D01*
X-5724Y38771D01*
X-5731Y38785D01*
X-5738D01*
X-5824Y38835D01*
X-5925Y38878D01*
X-6039Y38921D01*
X-6161Y38950D01*
X-6290Y38979D01*
X-6427Y39000D01*
X-6699Y39036D01*
X-6835Y39050D01*
X-6957Y39058D01*
X-7072Y39065D01*
X-7165D01*
X-7251Y39072D01*
D02*
G37*
G36*
X8495Y2152D02*
X8467D01*
X8452D01*
X8445D01*
X8259Y2138D01*
X8094Y2109D01*
X7958Y2066D01*
X7843Y2016D01*
X7750Y1958D01*
X7685Y1915D01*
X7642Y1887D01*
X7628Y1872D01*
X7527Y1765D01*
X7456Y1650D01*
X7406Y1535D01*
X7370Y1421D01*
X7348Y1327D01*
X7341Y1249D01*
X7334Y1220D01*
Y1177D01*
X7348Y1026D01*
X7377Y890D01*
X7427Y768D01*
X7485Y660D01*
X7535Y582D01*
X7585Y517D01*
X7614Y481D01*
X7628Y467D01*
X7743Y374D01*
X7872Y302D01*
X8001Y259D01*
X8123Y223D01*
X8230Y202D01*
X8273Y195D01*
X8316D01*
X8352Y187D01*
X8373D01*
X8388D01*
X8395D01*
X8581Y202D01*
X8754Y230D01*
X8904Y280D01*
X9026Y338D01*
X9126Y388D01*
X9198Y438D01*
X9220Y453D01*
X9241Y467D01*
X9248Y481D01*
X9256D01*
X9313Y539D01*
X9370Y596D01*
X9449Y718D01*
X9514Y840D01*
X9549Y955D01*
X9578Y1048D01*
X9585Y1127D01*
X9592Y1155D01*
Y1270D01*
X9578Y1342D01*
X9542Y1471D01*
X9492Y1585D01*
X9442Y1686D01*
X9385Y1765D01*
X9334Y1822D01*
X9298Y1858D01*
X9291Y1872D01*
X9284D01*
X9162Y1966D01*
X9026Y2037D01*
X8883Y2087D01*
X8746Y2116D01*
X8632Y2138D01*
X8581Y2145D01*
X8531D01*
X8495Y2152D01*
D02*
G37*
G36*
X25073Y5572D02*
X25008D01*
X24972D01*
X24965D01*
X24958D01*
X24736D01*
X24535Y5558D01*
X24356Y5543D01*
X24184Y5529D01*
X24040Y5507D01*
X23904Y5479D01*
X23789Y5450D01*
X23682Y5429D01*
X23596Y5400D01*
X23524Y5371D01*
X23460Y5350D01*
X23409Y5321D01*
X23374Y5307D01*
X23352Y5292D01*
X23338Y5278D01*
X23331D01*
X23259Y5221D01*
X23201Y5163D01*
X23144Y5106D01*
X23101Y5049D01*
X23029Y4927D01*
X22979Y4819D01*
X22951Y4719D01*
X22936Y4647D01*
X22929Y4618D01*
Y4575D01*
X22936Y4496D01*
X22943Y4425D01*
X22994Y4289D01*
X23058Y4167D01*
X23130Y4059D01*
X23201Y3980D01*
X23266Y3916D01*
X23316Y3880D01*
X23323Y3866D01*
X23331D01*
X23417Y3815D01*
X23517Y3772D01*
X23632Y3729D01*
X23754Y3701D01*
X23883Y3672D01*
X24019Y3650D01*
X24298Y3615D01*
X24428Y3600D01*
X24550Y3593D01*
X24664Y3586D01*
X24757D01*
X24843Y3579D01*
X24908D01*
X24944D01*
X24958D01*
X25180Y3586D01*
X25381Y3593D01*
X25568Y3607D01*
X25740Y3629D01*
X25890Y3650D01*
X26026Y3679D01*
X26148Y3708D01*
X26256Y3736D01*
X26349Y3765D01*
X26428Y3787D01*
X26493Y3815D01*
X26550Y3837D01*
X26586Y3858D01*
X26614Y3873D01*
X26629Y3887D01*
X26636D01*
X26700Y3937D01*
X26758Y3987D01*
X26801Y4045D01*
X26844Y4102D01*
X26908Y4217D01*
X26951Y4324D01*
X26973Y4418D01*
X26987Y4496D01*
X26994Y4525D01*
Y4568D01*
X26987Y4647D01*
X26980Y4726D01*
X26959Y4798D01*
X26930Y4862D01*
X26865Y4984D01*
X26794Y5092D01*
X26715Y5170D01*
X26650Y5235D01*
X26622Y5257D01*
X26600Y5271D01*
X26593Y5285D01*
X26586D01*
X26500Y5335D01*
X26399Y5378D01*
X26285Y5421D01*
X26163Y5450D01*
X26034Y5479D01*
X25897Y5500D01*
X25625Y5536D01*
X25489Y5551D01*
X25367Y5558D01*
X25252Y5565D01*
X25159D01*
X25073Y5572D01*
D02*
G37*
%LPD*%
D10*
X-12010Y-5596D02*
X-10011D01*
X-11011D01*
Y-10595D01*
X-10011Y-11594D01*
X-9012D01*
X-8012Y-10595D01*
X-14010Y-11594D02*
X-16009D01*
X-15010D01*
Y-5596D01*
X-14010Y-6596D01*
X-19008Y-5596D02*
X-23007D01*
Y-6596D01*
X-19008Y-10595D01*
Y-11594D01*
X18137Y-38096D02*
X20137D01*
X19137D01*
Y-43095D01*
X20137Y-44094D01*
X21136D01*
X22136Y-43095D01*
X16138Y-44094D02*
X14139D01*
X15138D01*
Y-38096D01*
X16138Y-39096D01*
X7141Y-38096D02*
X9140Y-39096D01*
X11140Y-41096D01*
Y-43095D01*
X10140Y-44094D01*
X8141D01*
X7141Y-43095D01*
Y-42095D01*
X8141Y-41096D01*
X11140D01*
D25*
X-31280Y2134D02*
X-744D01*
X-31280D02*
Y30678D01*
X-744D01*
Y2134D02*
Y30678D01*
X1044Y-31367D02*
X31580D01*
X1044D02*
Y-2822D01*
X31580D01*
Y-31367D02*
Y-2822D01*
M02*
