G04*
G04 #@! TF.GenerationSoftware,Altium Limited,Altium Designer,18.1.11 (251)*
G04*
G04 Layer_Color=16711935*
%FSLAX25Y25*%
%MOIN*%
G70*
G01*
G75*
%ADD12C,0.12800*%
%ADD13C,0.05800*%
%ADD14C,0.16548*%
%ADD21R,0.11386X0.03315*%
%ADD22R,0.11386X0.03316*%
%ADD23R,0.11784X0.03713*%
D12*
X-53000Y-53000D02*
D03*
X72400Y19400D02*
D03*
X-72400Y-19400D02*
D03*
X75000Y0D02*
D03*
X-75000D02*
D03*
X72400Y-19400D02*
D03*
X37500Y64950D02*
D03*
X19400Y72400D02*
D03*
X0Y75000D02*
D03*
X-19400Y72400D02*
D03*
X-37500Y64950D02*
D03*
X-53000Y53000D02*
D03*
X-64950Y37500D02*
D03*
X-72400Y19400D02*
D03*
X53000Y53000D02*
D03*
X65000Y37500D02*
D03*
D13*
X-17000Y-36000D02*
D03*
X-10500D02*
D03*
X-4000D02*
D03*
D14*
X0Y-75000D02*
D03*
X65000Y-37500D02*
D03*
X-64950D02*
D03*
D21*
X-24012Y6405D02*
D03*
X-8012D02*
D03*
X-24012Y11405D02*
D03*
X-8012D02*
D03*
X-24012Y21406D02*
D03*
X-8012D02*
D03*
X-24012Y26406D02*
D03*
X-8012D02*
D03*
X8312Y-27095D02*
D03*
X24312D02*
D03*
X8312Y-22095D02*
D03*
X24312D02*
D03*
X8312Y-12094D02*
D03*
X24312D02*
D03*
X8312Y-7094D02*
D03*
X24312D02*
D03*
D22*
X-24012Y16406D02*
D03*
X-8012D02*
D03*
X8312Y-17095D02*
D03*
X24312D02*
D03*
D23*
X-24012Y6406D02*
D03*
X-8012D02*
D03*
X-24012Y11406D02*
D03*
X-8012D02*
D03*
X-24012Y16406D02*
D03*
X-8012D02*
D03*
X-24012Y21406D02*
D03*
X-8012D02*
D03*
X-24012Y26406D02*
D03*
X-8012D02*
D03*
X8312Y-27095D02*
D03*
X24312D02*
D03*
X8312Y-22095D02*
D03*
X24312D02*
D03*
X8312Y-17095D02*
D03*
X24312D02*
D03*
X8312Y-12094D02*
D03*
X24312D02*
D03*
X8312Y-7095D02*
D03*
X24312D02*
D03*
M02*
