G04*
G04 #@! TF.GenerationSoftware,Altium Limited,Altium Designer,18.1.11 (251)*
G04*
G04 Layer_Physical_Order=2*
G04 Layer_Color=16711680*
%FSLAX25Y25*%
%MOIN*%
G70*
G01*
G75*
%ADD10C,0.01000*%
%ADD11C,0.12000*%
%ADD15C,0.03000*%
%ADD17C,0.05000*%
%ADD18C,0.15748*%
%ADD19R,0.10984X0.02913*%
%ADD20C,0.04000*%
G36*
X-30504Y22906D02*
X-24012D01*
Y19906D01*
X-30504D01*
Y18949D01*
X-30504D01*
Y18862D01*
X-30504D01*
Y17906D01*
X-24012D01*
Y14906D01*
X-30504D01*
Y14500D01*
X-32500D01*
X-55500Y-8500D01*
X-101000D01*
Y10000D01*
X-69000D01*
X-61500Y17500D01*
X-55000D01*
X-49500Y23000D01*
X-30504D01*
Y22906D01*
D02*
G37*
G36*
X-14504Y9362D02*
X-14504Y8949D01*
X-14504Y8949D01*
Y8862D01*
X-14504D01*
X-14504Y8449D01*
Y3949D01*
X-14500D01*
Y-22500D01*
X-19094Y-27095D01*
X-101000D01*
Y-11000D01*
X-55000D01*
X-30965Y12554D01*
X-30504Y12361D01*
Y9362D01*
X-30504Y8949D01*
X-30504Y8449D01*
Y7905D01*
X-24012D01*
X-17520D01*
Y8449D01*
X-17520Y8862D01*
X-17520Y9362D01*
Y9905D01*
X-24012D01*
Y12905D01*
X-17520D01*
Y13500D01*
X-14504D01*
Y9362D01*
D02*
G37*
G36*
X103500Y-8500D02*
X65500D01*
X52436Y-18980D01*
X30804D01*
Y-18595D01*
X24312D01*
Y-15595D01*
X30804D01*
Y-14638D01*
X30804D01*
Y-14551D01*
X30804D01*
Y-13595D01*
X24312D01*
Y-10594D01*
X30804D01*
Y-10000D01*
X31500D01*
X52500Y11000D01*
X103500D01*
Y-8500D01*
D02*
G37*
G36*
Y-27095D02*
X61905Y-27095D01*
X39500Y-49500D01*
X15000D01*
Y-20000D01*
X17820D01*
Y-20595D01*
X24312D01*
X30804D01*
Y-20000D01*
X53500D01*
X65722Y-10000D01*
X103500D01*
Y-27095D01*
D02*
G37*
%LPC*%
G36*
X-72000Y6334D02*
Y3000D01*
X-68666D01*
X-69152Y3908D01*
X-70026Y4974D01*
X-71092Y5848D01*
X-72000Y6334D01*
D02*
G37*
G36*
X-78000D02*
X-78908Y5848D01*
X-79974Y4974D01*
X-80848Y3908D01*
X-81334Y3000D01*
X-78000D01*
Y6334D01*
D02*
G37*
G36*
X-68666Y-3000D02*
X-72000D01*
Y-6334D01*
X-71092Y-5848D01*
X-70026Y-4974D01*
X-69152Y-3908D01*
X-68666Y-3000D01*
D02*
G37*
G36*
X-78000D02*
X-81334D01*
X-80848Y-3908D01*
X-79974Y-4974D01*
X-78908Y-5848D01*
X-78000Y-6334D01*
Y-3000D01*
D02*
G37*
G36*
X-17520Y4905D02*
X-22512D01*
Y3949D01*
X-17520D01*
Y4905D01*
D02*
G37*
G36*
X-25512D02*
X-30504D01*
Y3949D01*
X-25512D01*
Y4905D01*
D02*
G37*
G36*
X-69400Y-13066D02*
Y-16400D01*
X-66066D01*
X-66552Y-15492D01*
X-67426Y-14426D01*
X-68492Y-13552D01*
X-69400Y-13066D01*
D02*
G37*
G36*
X-75400D02*
X-76308Y-13552D01*
X-77374Y-14426D01*
X-78249Y-15492D01*
X-78734Y-16400D01*
X-75400D01*
Y-13066D01*
D02*
G37*
G36*
X-66066Y-22400D02*
X-69400D01*
Y-25734D01*
X-68492Y-25248D01*
X-67426Y-24374D01*
X-66552Y-23308D01*
X-66066Y-22400D01*
D02*
G37*
G36*
X-75400D02*
X-78734D01*
X-78249Y-23308D01*
X-77374Y-24374D01*
X-76308Y-25248D01*
X-75400Y-25734D01*
Y-22400D01*
D02*
G37*
G36*
X78000Y6334D02*
Y3000D01*
X81334D01*
X80848Y3908D01*
X79974Y4974D01*
X78908Y5848D01*
X78000Y6334D01*
D02*
G37*
G36*
X72000D02*
X71092Y5848D01*
X70026Y4974D01*
X69152Y3908D01*
X68666Y3000D01*
X72000D01*
Y6334D01*
D02*
G37*
G36*
X81334Y-3000D02*
X78000D01*
Y-6334D01*
X78908Y-5848D01*
X79974Y-4974D01*
X80848Y-3908D01*
X81334Y-3000D01*
D02*
G37*
G36*
X72000D02*
X68666D01*
X69152Y-3908D01*
X70026Y-4974D01*
X71092Y-5848D01*
X72000Y-6334D01*
Y-3000D01*
D02*
G37*
G36*
X75400Y-13066D02*
Y-16400D01*
X78734D01*
X78249Y-15492D01*
X77374Y-14426D01*
X76308Y-13552D01*
X75400Y-13066D01*
D02*
G37*
G36*
X69400D02*
X68492Y-13552D01*
X67426Y-14426D01*
X66552Y-15492D01*
X66066Y-16400D01*
X69400D01*
Y-13066D01*
D02*
G37*
G36*
X30804Y-23595D02*
X24312D01*
X17820D01*
Y-24551D01*
X17820D01*
Y-24638D01*
X17820D01*
Y-25594D01*
X24312D01*
X30804D01*
Y-24638D01*
X30804D01*
Y-24551D01*
X30804D01*
Y-23595D01*
D02*
G37*
G36*
X78734Y-22400D02*
X75400D01*
Y-25734D01*
X76308Y-25248D01*
X77374Y-24374D01*
X78249Y-23308D01*
X78734Y-22400D01*
D02*
G37*
G36*
X69400D02*
X66066D01*
X66552Y-23308D01*
X67426Y-24374D01*
X68492Y-25248D01*
X69400Y-25734D01*
Y-22400D01*
D02*
G37*
G36*
X30804Y-28594D02*
X24312D01*
X17820D01*
Y-29551D01*
X22585D01*
X22799Y-29715D01*
X23529Y-30017D01*
X24312Y-30120D01*
X25095Y-30017D01*
X25825Y-29715D01*
X26039Y-29551D01*
X30804D01*
Y-28594D01*
D02*
G37*
%LPD*%
D10*
X24312Y-7095D02*
X28905D01*
X19400Y40065D02*
Y72400D01*
X10000Y30665D02*
X19400Y40065D01*
X37500Y49500D02*
Y64950D01*
X24500Y36500D02*
X37500Y49500D01*
X19500Y36500D02*
X24500D01*
X-17000Y-36000D02*
Y-31500D01*
X12000Y29000D02*
X19500Y36500D01*
X12000Y17500D02*
Y29000D01*
Y17500D02*
X16500Y13000D01*
X10000Y10594D02*
Y30665D01*
X-2000Y-1405D02*
X10000Y10594D01*
X-2000Y-4974D02*
Y-1405D01*
Y-4974D02*
X121Y-7095D01*
X8312D01*
X16500Y-10000D02*
Y13000D01*
X14405Y-12094D02*
X16500Y-10000D01*
X8312Y-12094D02*
X14405D01*
X-17000Y-31500D02*
X-2595Y-17095D01*
X8312D01*
X-10500Y-31500D02*
X-1094Y-22095D01*
X-10500Y-36000D02*
Y-31500D01*
Y-36000D02*
X-10000Y-35500D01*
X-1094Y-22095D02*
X8312D01*
X-4000Y-36000D02*
Y-31000D01*
X-94Y-27095D01*
X8312D01*
X0Y38485D02*
Y75000D01*
Y38485D02*
X8000Y30485D01*
Y13500D02*
Y30485D01*
X905Y6406D02*
X8000Y13500D01*
X-8012Y6406D02*
X905D01*
X-19400Y38500D02*
Y72400D01*
Y38500D02*
X-16400Y35500D01*
X157D01*
X6000Y29657D01*
X2000Y23000D02*
Y28000D01*
X-1500Y31500D02*
X2000Y28000D01*
X-48500Y31500D02*
X-1500D01*
X6000Y17000D02*
Y29657D01*
X405Y11406D02*
X6000Y17000D01*
X-8012Y11406D02*
X405D01*
X-11106Y29500D02*
X-8012Y26406D01*
X-51000Y29500D02*
X-11106D01*
X-35500Y33500D02*
X-672D01*
X4000Y28828D01*
X-37500Y35500D02*
Y64950D01*
Y35500D02*
X-35500Y33500D01*
X4000Y21000D02*
Y28828D01*
X-594Y16406D02*
X4000Y21000D01*
X-8012Y16406D02*
X-594D01*
X-53000Y36000D02*
Y53000D01*
Y36000D02*
X-48500Y31500D01*
X405Y21406D02*
X2000Y23000D01*
X-8012Y21406D02*
X405D01*
X-64950Y37500D02*
X-59000D01*
X-51000Y29500D01*
X-72400Y19400D02*
X-58100D01*
X-51095Y26406D01*
X-24012D01*
D11*
X-53000Y-53000D02*
D03*
X72400Y19400D02*
D03*
X-72400Y-19400D02*
D03*
X75000Y0D02*
D03*
X-75000D02*
D03*
X72400Y-19400D02*
D03*
X37500Y64950D02*
D03*
X19400Y72400D02*
D03*
X0Y75000D02*
D03*
X-19400Y72400D02*
D03*
X-37500Y64950D02*
D03*
X-53000Y53000D02*
D03*
X-64950Y37500D02*
D03*
X-72400Y19400D02*
D03*
X53000Y53000D02*
D03*
X65000Y37500D02*
D03*
D15*
X55400Y19400D02*
X72400D01*
X28905Y-7095D02*
X55400Y19400D01*
D17*
X-17000Y-36000D02*
D03*
X-10500D02*
D03*
X-4000D02*
D03*
D18*
X0Y-75000D02*
D03*
X65000Y-37500D02*
D03*
X-64950D02*
D03*
D19*
X-24012Y6406D02*
D03*
X-8012D02*
D03*
X-24012Y11406D02*
D03*
X-8012D02*
D03*
X-24012Y16406D02*
D03*
X-8012D02*
D03*
X-24012Y21406D02*
D03*
X-8012D02*
D03*
X-24012Y26406D02*
D03*
X-8012D02*
D03*
X8312Y-27095D02*
D03*
X24312D02*
D03*
X8312Y-22095D02*
D03*
X24312D02*
D03*
X8312Y-17095D02*
D03*
X24312D02*
D03*
X8312Y-12094D02*
D03*
X24312D02*
D03*
X8312Y-7095D02*
D03*
X24312D02*
D03*
D20*
X-24012Y16406D02*
Y21406D01*
Y6406D02*
Y11406D01*
X24312Y-27095D02*
Y-22095D01*
Y-17095D02*
Y-12094D01*
M02*
