%TF.GenerationSoftware,Altium Limited,Altium Designer,18.1.9 (240)*%
G04 Layer_Physical_Order=1*
G04 Layer_Color=255*
%FSLAX26Y26*%
%MOIN*%
%TF.FileFunction,Copper,L1,Top,Signal*%
%TF.Part,Single*%
G01*
G75*
%TA.AperFunction,SMDPad,CuDef*%
%ADD10R,0.109840X0.029130*%
%ADD11C,0.120000*%
%TA.AperFunction,Conductor*%
%ADD12C,0.050000*%
%ADD13C,0.010000*%
%ADD14C,0.025000*%
%TA.AperFunction,ViaPad*%
%ADD15C,0.050000*%
%ADD16C,0.157480*%
G36*
X-194000Y145196D02*
X-300000D01*
X-300986Y145000D01*
X-325000D01*
X-555000Y-85000D01*
X-1010000D01*
Y100000D01*
X-690000D01*
X-615000Y175000D01*
X-550000D01*
X-495000Y230000D01*
X-194000D01*
Y145196D01*
D02*
G37*
G36*
X-145038Y93620D02*
X-145038Y89490D01*
X-145038Y89490D01*
Y88620D01*
X-145038D01*
X-145038Y84490D01*
Y39490D01*
X-145000D01*
Y-225000D01*
X-190945Y-271000D01*
X-1010000D01*
Y-110000D01*
X-550000D01*
X-300000Y135000D01*
X-145038D01*
Y93620D01*
D02*
G37*
G36*
X1035000Y-85000D02*
X655000D01*
X523528Y-190472D01*
X185000D01*
Y-100000D01*
X315000D01*
X525000Y110000D01*
X1035000D01*
Y-85000D01*
D02*
G37*
G36*
Y-270945D02*
X619055Y-270945D01*
X395000Y-495000D01*
X150000D01*
Y-200000D01*
X181640D01*
X185000Y-200668D01*
X523528D01*
X524942Y-200387D01*
X526379Y-200262D01*
X526878Y-200002D01*
X526888Y-200000D01*
X535000D01*
X657222Y-100000D01*
X1035000D01*
Y-270945D01*
D02*
G37*
D10*
X243122Y-70945D02*
D03*
Y-120945D02*
D03*
X83122D02*
D03*
X243122Y-170945D02*
D03*
X83122D02*
D03*
X243122Y-220945D02*
D03*
X83122D02*
D03*
X243122Y-270945D02*
D03*
X83122D02*
D03*
Y-70945D02*
D03*
X-80118Y264055D02*
D03*
Y214055D02*
D03*
X-240118D02*
D03*
X-80118Y164055D02*
D03*
X-240118D02*
D03*
X-80118Y114055D02*
D03*
X-240118D02*
D03*
X-80118Y64055D02*
D03*
X-240118D02*
D03*
Y264055D02*
D03*
D11*
X-530000Y-530000D02*
D03*
D12*
X-335000Y-525000D02*
X-170000Y-360000D01*
X-165000Y-355000D01*
Y-335147D01*
X-798Y-170945D01*
X83122D01*
X-525000Y-525000D02*
X-335000D01*
X260773Y-15000D02*
X290773Y15000D01*
X365000D01*
D13*
X-105000Y-360000D02*
X-60000Y-315000D01*
X-30000Y-40478D02*
X310478Y300000D01*
X-60000Y-20000D02*
X268910Y308910D01*
X-80118Y64055D02*
X-11890D01*
X50000Y125945D01*
Y315000D01*
X1568Y363432D02*
X50000Y315000D01*
X1568Y363432D02*
Y420000D01*
X-80118Y114055D02*
X-21890D01*
X-5945Y130000D01*
Y145771D01*
X30000Y181716D01*
Y301204D01*
X-23796Y355000D02*
X30000Y301204D01*
X-140000Y355000D02*
X-23796D01*
X-190000Y405000D02*
X-140000Y355000D01*
X-80118Y164055D02*
X-15945D01*
X10000Y190000D01*
Y292919D01*
X-32081Y335000D02*
X10000Y292919D01*
X-305000Y335000D02*
X-32081D01*
X-375000Y405000D02*
X-305000Y335000D01*
X-10000Y225000D02*
Y280000D01*
X-10198Y280198D02*
X-10000Y280000D01*
X-10198Y280198D02*
Y284833D01*
X-20000Y215000D02*
X-10000Y225000D01*
X-20000Y214055D02*
Y215000D01*
X-80118Y214055D02*
X-20000D01*
X-40365Y315000D02*
X-10198Y284833D01*
X-445000Y315000D02*
X-40365D01*
X-530000Y400000D02*
X-445000Y315000D01*
X-111063Y295000D02*
X-80118Y264055D01*
X-536568Y295000D02*
X-111063D01*
X-561568Y270000D02*
X-536568Y295000D01*
X-610000Y270000D02*
X-561568D01*
X-320000Y264055D02*
X-240118D01*
X-329055Y255000D02*
X-320000Y264055D01*
X-520000Y255000D02*
X-329055D01*
X-530000Y-530000D02*
X-525000Y-525000D01*
X195000Y475000D02*
X245000D01*
X255000Y465000D01*
X285478D01*
X79067Y-75000D02*
X83122Y-70945D01*
X-15000Y-75000D02*
X79067D01*
X-30000Y-60000D02*
X-15000Y-75000D01*
X-30000Y-60000D02*
Y-40478D01*
X310478Y300000D02*
Y440000D01*
X82177Y-120000D02*
X83122Y-120945D01*
X-30000Y-120000D02*
X82177D01*
X-60000Y-90000D02*
X-30000Y-120000D01*
X-60000Y-90000D02*
Y-20000D01*
X268910Y308910D02*
Y425000D01*
X285478Y465000D02*
X310478Y440000D01*
X195000Y475000D02*
X205000Y465000D01*
X15771Y-220945D02*
X83122D01*
X-60000Y-296716D02*
X15771Y-220945D01*
X-60000Y-315000D02*
Y-296716D01*
X-5945Y-270945D02*
X83122D01*
X-40000Y-305000D02*
X-5945Y-270945D01*
X-40000Y-360000D02*
Y-305000D01*
X-194000Y409000D02*
X-190000Y405000D01*
X-520000Y245000D02*
Y255000D01*
D14*
X260773Y-53294D02*
Y-15000D01*
X243122Y-70945D02*
X260773Y-53294D01*
D15*
X-170000Y-360000D02*
D03*
X-105000D02*
D03*
X195000Y475000D02*
D03*
X365000Y15000D02*
D03*
X575000Y-40000D02*
D03*
X490000D02*
D03*
Y30000D02*
D03*
X268910Y425000D02*
D03*
X1568Y420000D02*
D03*
X-190000Y405000D02*
D03*
X-375000D02*
D03*
X-530000Y400000D02*
D03*
X-610000Y270000D02*
D03*
X-520000Y255000D02*
D03*
X995000Y70000D02*
D03*
Y10000D02*
D03*
X855000Y70000D02*
D03*
X925000Y10000D02*
D03*
X855000D02*
D03*
X925000Y70000D02*
D03*
X850000Y-140000D02*
D03*
Y-200000D02*
D03*
X995000Y-140000D02*
D03*
X925000Y-200000D02*
D03*
X995000D02*
D03*
X925000Y-140000D02*
D03*
X495000Y-265000D02*
D03*
X425000Y-325000D02*
D03*
X495000D02*
D03*
X425000Y-265000D02*
D03*
X575000Y30000D02*
D03*
X500000Y-154004D02*
D03*
X415000Y-154922D02*
D03*
X290000Y-385000D02*
D03*
X360000Y-445000D02*
D03*
X290000D02*
D03*
X360000Y-385000D02*
D03*
X-965000Y-225000D02*
D03*
Y-155000D02*
D03*
X-515000Y-223024D02*
D03*
X-512651Y-150000D02*
D03*
X-375000D02*
D03*
Y-223024D02*
D03*
X-270000Y-220917D02*
D03*
X-185000Y-220000D02*
D03*
Y-150000D02*
D03*
X-270000D02*
D03*
X-445000D02*
D03*
Y-223024D02*
D03*
X-965000Y-45000D02*
D03*
Y55000D02*
D03*
X-570000Y30000D02*
D03*
X-495000Y35000D02*
D03*
X-495000Y120000D02*
D03*
X-415000D02*
D03*
X-455000Y194000D02*
D03*
X-375000D02*
D03*
X-40000Y-360000D02*
D03*
D16*
X-649500Y-375000D02*
D03*
X650000D02*
D03*
X-798Y-755000D02*
D03*
%TF.MD5,e6c126ab4e2916c49969b15cde0fe910*%
M02*
