%TF.GenerationSoftware,Altium Limited,Altium Designer,18.1.9 (240)*%
G04 Layer_Physical_Order=2*
G04 Layer_Color=16711680*
%FSLAX26Y26*%
%MOIN*%
%TF.FileFunction,Copper,L2,Bot,Signal*%
%TF.Part,Single*%
G01*
G75*
%TA.AperFunction,SMDPad,CuDef*%
%ADD11C,0.120000*%
%TA.AperFunction,Conductor*%
%ADD12C,0.050000*%
%ADD13C,0.010000*%
%ADD14C,0.025000*%
%TA.AperFunction,ViaPad*%
%ADD15C,0.050000*%
%ADD16C,0.157480*%
G36*
X-325000Y145000D02*
X-555000Y-85000D01*
X-1010000D01*
Y100000D01*
X-690000D01*
X-615000Y175000D01*
X-550000D01*
X-495000Y230000D01*
X-325000D01*
Y145000D01*
D02*
G37*
G36*
X-130000Y-45000D02*
X-130000Y-209982D01*
X-190945Y-271000D01*
X-1010000D01*
Y-110000D01*
X-550000D01*
X-483673Y-45000D01*
X-130000Y-45000D01*
D02*
G37*
G36*
X1035000Y-85000D02*
X655000D01*
X524361Y-189804D01*
X384773D01*
X384773Y-30227D01*
X525000Y110000D01*
X1035000D01*
Y-85000D01*
D02*
G37*
G36*
Y-270945D02*
X619055Y-270945D01*
X395000Y-495000D01*
X155756D01*
X153584Y-490496D01*
X384773Y-200000D01*
X535000D01*
X657222Y-100000D01*
X1035000D01*
Y-270945D01*
D02*
G37*
D11*
X-724000Y194000D02*
D03*
X-750000Y0D02*
D03*
X-724000Y-194000D02*
D03*
X724000D02*
D03*
X750000Y0D02*
D03*
X724000Y194000D02*
D03*
X650000Y375000D02*
D03*
X530000Y530000D02*
D03*
X375000Y649500D02*
D03*
X194000Y724000D02*
D03*
X0Y750000D02*
D03*
X-194000Y724000D02*
D03*
X-375000Y649500D02*
D03*
X-530000Y530000D02*
D03*
X-649500Y375000D02*
D03*
X-530000Y-530000D02*
D03*
D12*
X-335000Y-525000D02*
X-170000Y-360000D01*
X-530000Y-530000D02*
X-525000Y-525000D01*
X-335000D01*
X-40000Y-360000D02*
Y-305147D01*
X640147Y375000D01*
X650000D01*
X544000Y194000D02*
X724000D01*
X365000Y15000D02*
X544000Y194000D01*
D13*
X-105000Y-360000D02*
X-100000Y-355000D01*
X-105000Y-360000D02*
Y-295000D01*
X530000Y340000D01*
X-194000Y409000D02*
X-190000Y405000D01*
X0Y420847D02*
X1208Y419639D01*
X194000Y724000D02*
X195000Y723000D01*
Y475000D02*
Y723000D01*
X530000Y340000D02*
Y530000D01*
X268910Y425000D02*
Y543410D01*
X375000Y649500D01*
X0Y420847D02*
Y750000D01*
X-375000Y405000D02*
Y649500D01*
X-581000Y194000D02*
X-520000Y255000D01*
X-724000Y194000D02*
X-581000D01*
X-649500Y309500D02*
X-610000Y270000D01*
X-649500Y309500D02*
Y375000D01*
X-530000Y400000D02*
Y530000D01*
X1208Y419639D02*
X1568Y420000D01*
X-520000Y255000D02*
X-516890D01*
X-506890Y265000D01*
X-505945Y264055D01*
D14*
X-194000Y409000D02*
Y724000D01*
D15*
X-170000Y-360000D02*
D03*
X-105000D02*
D03*
X195000Y475000D02*
D03*
X365000Y15000D02*
D03*
X575000Y-40000D02*
D03*
X490000D02*
D03*
Y30000D02*
D03*
X268910Y425000D02*
D03*
X1568Y420000D02*
D03*
X-190000Y405000D02*
D03*
X-375000D02*
D03*
X-530000Y400000D02*
D03*
X-610000Y270000D02*
D03*
X-520000Y255000D02*
D03*
X995000Y70000D02*
D03*
Y10000D02*
D03*
X855000Y70000D02*
D03*
X925000Y10000D02*
D03*
X855000D02*
D03*
X925000Y70000D02*
D03*
X850000Y-140000D02*
D03*
Y-200000D02*
D03*
X995000Y-140000D02*
D03*
X925000Y-200000D02*
D03*
X995000D02*
D03*
X925000Y-140000D02*
D03*
X495000Y-265000D02*
D03*
X425000Y-325000D02*
D03*
X495000D02*
D03*
X425000Y-265000D02*
D03*
X575000Y30000D02*
D03*
X500000Y-154004D02*
D03*
X415000Y-154922D02*
D03*
X290000Y-385000D02*
D03*
X360000Y-445000D02*
D03*
X290000D02*
D03*
X360000Y-385000D02*
D03*
X-965000Y-225000D02*
D03*
Y-155000D02*
D03*
X-515000Y-223024D02*
D03*
X-512651Y-150000D02*
D03*
X-375000D02*
D03*
Y-223024D02*
D03*
X-270000Y-220917D02*
D03*
X-185000Y-220000D02*
D03*
Y-150000D02*
D03*
X-270000D02*
D03*
X-445000D02*
D03*
Y-223024D02*
D03*
X-965000Y-45000D02*
D03*
Y55000D02*
D03*
X-570000Y30000D02*
D03*
X-495000Y35000D02*
D03*
X-495000Y120000D02*
D03*
X-415000D02*
D03*
X-455000Y194000D02*
D03*
X-375000D02*
D03*
X-40000Y-360000D02*
D03*
D16*
X-649500Y-375000D02*
D03*
X650000D02*
D03*
X-798Y-755000D02*
D03*
%TF.MD5,54fe2ad803e142b9ccc8512c0ae1272f*%
M02*
