%TF.GenerationSoftware,Altium Limited,Altium Designer,18.1.9 (240)*%
G04 Layer_Color=16711935*
%FSLAX26Y26*%
%MOIN*%
%TF.FileFunction,Other,Mechanical_1*%
%TF.Part,Single*%
G01*
G75*
%TA.AperFunction,NonConductor*%
%ADD18C,0.010000*%
D18*
X-644955Y-815676D02*
G03*
X-582918Y-685187I-444J80202D01*
G01*
X584339Y-685515D02*
G03*
X634882Y-832818I51000J-64824D01*
G01*
X-774543Y-815909D02*
G03*
X-384773Y-1057154I774543J815909D01*
G01*
X384773D02*
G03*
X755601Y-833481I-384773J1057154D01*
G01*
X-1116844Y135223D02*
G03*
X-1072996Y-338090I1116844J-135223D01*
G01*
X1072736Y-338912D02*
G03*
X1116111Y141139I-1072736J338912D01*
G01*
X-834466Y-337146D02*
G03*
X-583179Y-685494I834466J337146D01*
G01*
X583841Y-684931D02*
G03*
X834466Y-337146I-583841J684931D01*
G01*
X888919Y140791D02*
G03*
X-889889Y134528I-888919J-140791D01*
G01*
X634882Y-832818D02*
X755000D01*
X-774323Y-815677D02*
X-645399D01*
X330000Y-1002381D02*
X384773Y-1057154D01*
X-1075000Y-337146D02*
X-834466D01*
X1070970D02*
X1072736Y-338912D01*
X834466Y-337146D02*
X1070970D01*
X-1116844Y135223D02*
X-894487D01*
X888919Y140791D02*
X1115000D01*
X-384773Y-1057154D02*
X-330000Y-1002381D01*
X330000D01*
X312000Y312500D02*
X312500Y-312500D01*
X-312500D02*
X312500D01*
X-312500D02*
Y312500D01*
X312500D01*
%TF.MD5,2e5e3c09253b67ad795b599d215a8c28*%
M02*
