%TF.GenerationSoftware,Altium Limited,Altium Designer,18.1.9 (240)*%
G04 Layer_Color=2752767*
%FSLAX26Y26*%
%MOIN*%
%TF.FileFunction,Drawing*%
%TF.Part,Single*%
G01*
G75*
%TA.AperFunction,NonConductor*%
%ADD29C,0.005000*%
%ADD30C,0.006667*%
D29*
X-190000Y-380000D02*
Y-340000D01*
X-150000D01*
Y-380000D01*
X-190000D01*
X-125000D02*
Y-340000D01*
X-85000D01*
Y-380000D01*
X-125000D01*
X175000Y455000D02*
Y495000D01*
X215000D01*
Y455000D01*
X175000D01*
X345000Y-5000D02*
Y35000D01*
X385000D01*
Y-5000D01*
X345000D01*
X555000Y-60000D02*
Y-20000D01*
X595000D01*
Y-60000D01*
X555000D01*
X470000D02*
Y-20000D01*
X510000D01*
Y-60000D01*
X470000D01*
Y10000D02*
Y50000D01*
X510000D01*
Y10000D01*
X470000D01*
X248910Y405000D02*
Y445000D01*
X288910D01*
Y405000D01*
X248910D01*
X-18432Y400000D02*
Y440000D01*
X21568D01*
Y400000D01*
X-18432D01*
X-210000Y385000D02*
Y425000D01*
X-170000D01*
Y385000D01*
X-210000D01*
X-395000D02*
Y425000D01*
X-355000D01*
Y385000D01*
X-395000D01*
X-550000Y380000D02*
Y420000D01*
X-510000D01*
Y380000D01*
X-550000D01*
X-630000Y250000D02*
Y290000D01*
X-590000D01*
Y250000D01*
X-630000D01*
X-540000Y235000D02*
Y275000D01*
X-500000D01*
Y235000D01*
X-540000D01*
X975000Y50000D02*
Y90000D01*
X1015000D01*
Y50000D01*
X975000D01*
Y-10000D02*
Y30000D01*
X1015000D01*
Y-10000D01*
X975000D01*
X835000Y50000D02*
Y90000D01*
X875000D01*
Y50000D01*
X835000D01*
X905000Y-10000D02*
Y30000D01*
X945000D01*
Y-10000D01*
X905000D01*
X835000D02*
Y30000D01*
X875000D01*
Y-10000D01*
X835000D01*
X905000Y50000D02*
Y90000D01*
X945000D01*
Y50000D01*
X905000D01*
X830000Y-160000D02*
Y-120000D01*
X870000D01*
Y-160000D01*
X830000D01*
Y-220000D02*
Y-180000D01*
X870000D01*
Y-220000D01*
X830000D01*
X975000Y-160000D02*
Y-120000D01*
X1015000D01*
Y-160000D01*
X975000D01*
X905000Y-220000D02*
Y-180000D01*
X945000D01*
Y-220000D01*
X905000D01*
X975000D02*
Y-180000D01*
X1015000D01*
Y-220000D01*
X975000D01*
X905000Y-160000D02*
Y-120000D01*
X945000D01*
Y-160000D01*
X905000D01*
X475000Y-285000D02*
Y-245000D01*
X515000D01*
Y-285000D01*
X475000D01*
X405000Y-345000D02*
Y-305000D01*
X445000D01*
Y-345000D01*
X405000D01*
X475000D02*
Y-305000D01*
X515000D01*
Y-345000D01*
X475000D01*
X405000Y-285000D02*
Y-245000D01*
X445000D01*
Y-285000D01*
X405000D01*
X555000Y10000D02*
Y50000D01*
X595000D01*
Y10000D01*
X555000D01*
X480000Y-174004D02*
Y-134004D01*
X520000D01*
Y-174004D01*
X480000D01*
X395000Y-174922D02*
Y-134922D01*
X435000D01*
Y-174922D01*
X395000D01*
X270000Y-405000D02*
Y-365000D01*
X310000D01*
Y-405000D01*
X270000D01*
X340000Y-465000D02*
Y-425000D01*
X380000D01*
Y-465000D01*
X340000D01*
X270000D02*
Y-425000D01*
X310000D01*
Y-465000D01*
X270000D01*
X340000Y-405000D02*
Y-365000D01*
X380000D01*
Y-405000D01*
X340000D01*
X-985000Y-245000D02*
Y-205000D01*
X-945000D01*
Y-245000D01*
X-985000D01*
Y-175000D02*
Y-135000D01*
X-945000D01*
Y-175000D01*
X-985000D01*
X-535000Y-243024D02*
Y-203024D01*
X-495000D01*
Y-243024D01*
X-535000D01*
X-532651Y-170000D02*
Y-130000D01*
X-492651D01*
Y-170000D01*
X-532651D01*
X-395000D02*
Y-130000D01*
X-355000D01*
Y-170000D01*
X-395000D01*
Y-243024D02*
Y-203024D01*
X-355000D01*
Y-243024D01*
X-395000D01*
X-290000Y-240917D02*
Y-200917D01*
X-250000D01*
Y-240917D01*
X-290000D01*
X-205000Y-240000D02*
Y-200000D01*
X-165000D01*
Y-240000D01*
X-205000D01*
Y-170000D02*
Y-130000D01*
X-165000D01*
Y-170000D01*
X-205000D01*
X-290000D02*
Y-130000D01*
X-250000D01*
Y-170000D01*
X-290000D01*
X-465000D02*
Y-130000D01*
X-425000D01*
Y-170000D01*
X-465000D01*
Y-243024D02*
Y-203024D01*
X-425000D01*
Y-243024D01*
X-465000D01*
X-985000Y-65000D02*
Y-25000D01*
X-945000D01*
Y-65000D01*
X-985000D01*
Y35000D02*
Y75000D01*
X-945000D01*
Y35000D01*
X-985000D01*
X-590000Y10000D02*
Y50000D01*
X-550000D01*
Y10000D01*
X-590000D01*
X-515000Y15000D02*
Y55000D01*
X-475000D01*
Y15000D01*
X-515000D01*
X-515000Y100000D02*
Y140000D01*
X-475000D01*
Y100000D01*
X-515000D01*
X-435000D02*
Y140000D01*
X-395000D01*
Y100000D01*
X-435000D01*
X-475000Y174000D02*
Y214000D01*
X-435000D01*
Y174000D01*
X-475000D01*
X-395000D02*
Y214000D01*
X-355000D01*
Y174000D01*
X-395000D01*
X-60000Y-380000D02*
Y-340000D01*
X-20000D01*
Y-380000D01*
X-60000D01*
D30*
X-629500Y-375000D02*
G03*
X-629500Y-375000I-20000J0D01*
G01*
X670000D02*
G03*
X670000Y-375000I-20000J0D01*
G01*
X19202Y-755000D02*
G03*
X19202Y-755000I-20000J0D01*
G01*
%TF.MD5,3088ef4c118b0d58d09d5d32d66406a9*%
M02*
