%TF.GenerationSoftware,Altium Limited,Altium Designer,18.1.9 (240)*%
G04 Layer_Color=128*
%FSLAX26Y26*%
%MOIN*%
%TF.FileFunction,Drillmap*%
%TF.Part,Single*%
G01*
G75*
%TA.AperFunction,NonConductor*%
%ADD29C,0.005000*%
D29*
X-184000Y-360000D02*
X-156000D01*
X-170000Y-374000D02*
Y-346000D01*
X-119000Y-360000D02*
X-91000D01*
X-105000Y-374000D02*
Y-346000D01*
X181000Y475000D02*
X209000D01*
X195000Y461000D02*
Y489000D01*
X351000Y15000D02*
X379000D01*
X365000Y1000D02*
Y29000D01*
X561000Y-40000D02*
X589000D01*
X575000Y-54000D02*
Y-26000D01*
X476000Y-40000D02*
X504000D01*
X490000Y-54000D02*
Y-26000D01*
X476000Y30000D02*
X504000D01*
X490000Y16000D02*
Y44000D01*
X254910Y425000D02*
X282910D01*
X268910Y411000D02*
Y439000D01*
X-12432Y420000D02*
X15568D01*
X1568Y406000D02*
Y434000D01*
X-204000Y405000D02*
X-176000D01*
X-190000Y391000D02*
Y419000D01*
X-389000Y405000D02*
X-361000D01*
X-375000Y391000D02*
Y419000D01*
X-544000Y400000D02*
X-516000D01*
X-530000Y386000D02*
Y414000D01*
X-624000Y270000D02*
X-596000D01*
X-610000Y256000D02*
Y284000D01*
X-534000Y255000D02*
X-506000D01*
X-520000Y241000D02*
Y269000D01*
X981000Y70000D02*
X1009000D01*
X995000Y56000D02*
Y84000D01*
X981000Y10000D02*
X1009000D01*
X995000Y-4000D02*
Y24000D01*
X841000Y70000D02*
X869000D01*
X855000Y56000D02*
Y84000D01*
X911000Y10000D02*
X939000D01*
X925000Y-4000D02*
Y24000D01*
X841000Y10000D02*
X869000D01*
X855000Y-4000D02*
Y24000D01*
X911000Y70000D02*
X939000D01*
X925000Y56000D02*
Y84000D01*
X836000Y-140000D02*
X864000D01*
X850000Y-154000D02*
Y-126000D01*
X836000Y-200000D02*
X864000D01*
X850000Y-214000D02*
Y-186000D01*
X981000Y-140000D02*
X1009000D01*
X995000Y-154000D02*
Y-126000D01*
X911000Y-200000D02*
X939000D01*
X925000Y-214000D02*
Y-186000D01*
X981000Y-200000D02*
X1009000D01*
X995000Y-214000D02*
Y-186000D01*
X911000Y-140000D02*
X939000D01*
X925000Y-154000D02*
Y-126000D01*
X481000Y-265000D02*
X509000D01*
X495000Y-279000D02*
Y-251000D01*
X411000Y-325000D02*
X439000D01*
X425000Y-339000D02*
Y-311000D01*
X481000Y-325000D02*
X509000D01*
X495000Y-339000D02*
Y-311000D01*
X411000Y-265000D02*
X439000D01*
X425000Y-279000D02*
Y-251000D01*
X561000Y30000D02*
X589000D01*
X575000Y16000D02*
Y44000D01*
X486000Y-154004D02*
X514000D01*
X500000Y-168004D02*
Y-140004D01*
X401000Y-154922D02*
X429000D01*
X415000Y-168922D02*
Y-140922D01*
X276000Y-385000D02*
X304000D01*
X290000Y-399000D02*
Y-371000D01*
X346000Y-445000D02*
X374000D01*
X360000Y-459000D02*
Y-431000D01*
X276000Y-445000D02*
X304000D01*
X290000Y-459000D02*
Y-431000D01*
X346000Y-385000D02*
X374000D01*
X360000Y-399000D02*
Y-371000D01*
X-979000Y-225000D02*
X-951000D01*
X-965000Y-239000D02*
Y-211000D01*
X-979000Y-155000D02*
X-951000D01*
X-965000Y-169000D02*
Y-141000D01*
X-529000Y-223024D02*
X-501000D01*
X-515000Y-237024D02*
Y-209024D01*
X-526651Y-150000D02*
X-498651D01*
X-512651Y-164000D02*
Y-136000D01*
X-389000Y-150000D02*
X-361000D01*
X-375000Y-164000D02*
Y-136000D01*
X-389000Y-223024D02*
X-361000D01*
X-375000Y-237024D02*
Y-209024D01*
X-284000Y-220917D02*
X-256000D01*
X-270000Y-234917D02*
Y-206917D01*
X-199000Y-220000D02*
X-171000D01*
X-185000Y-234000D02*
Y-206000D01*
X-199000Y-150000D02*
X-171000D01*
X-185000Y-164000D02*
Y-136000D01*
X-284000Y-150000D02*
X-256000D01*
X-270000Y-164000D02*
Y-136000D01*
X-459000Y-150000D02*
X-431000D01*
X-445000Y-164000D02*
Y-136000D01*
X-459000Y-223024D02*
X-431000D01*
X-445000Y-237024D02*
Y-209024D01*
X-979000Y-45000D02*
X-951000D01*
X-965000Y-59000D02*
Y-31000D01*
X-979000Y55000D02*
X-951000D01*
X-965000Y41000D02*
Y69000D01*
X-584000Y30000D02*
X-556000D01*
X-570000Y16000D02*
Y44000D01*
X-509000Y35000D02*
X-481000D01*
X-495000Y21000D02*
Y49000D01*
X-509000Y120000D02*
X-481000D01*
X-495000Y106000D02*
Y134000D01*
X-429000Y120000D02*
X-401000D01*
X-415000Y106000D02*
Y134000D01*
X-469000Y194000D02*
X-441000D01*
X-455000Y180000D02*
Y208000D01*
X-389000Y194000D02*
X-361000D01*
X-375000Y180000D02*
Y208000D01*
X-710524Y-375000D02*
X-588476D01*
X-649500Y-436024D02*
Y-313976D01*
X588976Y-375000D02*
X711024D01*
X650000Y-436024D02*
Y-313976D01*
X-61821Y-755000D02*
X60226D01*
X-798Y-816024D02*
Y-693976D01*
X-54000Y-360000D02*
X-26000D01*
X-40000Y-374000D02*
Y-346000D01*
%TF.MD5,f2d02d1dcb8ab6d9c58cfc9f9ba2ce70*%
M02*
