%TF.GenerationSoftware,Altium Limited,Altium Designer,18.1.9 (240)*%
G04 Layer_Color=0*
%FSLAX26Y26*%
%MOIN*%
%TF.FileFunction,Plated,1,2,PTH,Drill*%
%TF.Part,Single*%
G01*
G75*
%TA.AperFunction,ViaDrill,NotFilled*%
%ADD26C,0.028000*%
%ADD27C,0.122047*%
D26*
X-170000Y-360000D02*
D03*
X-105000D02*
D03*
X195000Y475000D02*
D03*
X365000Y15000D02*
D03*
X575000Y-40000D02*
D03*
X490000D02*
D03*
Y30000D02*
D03*
X268910Y425000D02*
D03*
X1568Y420000D02*
D03*
X-190000Y405000D02*
D03*
X-375000D02*
D03*
X-530000Y400000D02*
D03*
X-610000Y270000D02*
D03*
X-520000Y255000D02*
D03*
X995000Y70000D02*
D03*
Y10000D02*
D03*
X855000Y70000D02*
D03*
X925000Y10000D02*
D03*
X855000D02*
D03*
X925000Y70000D02*
D03*
X850000Y-140000D02*
D03*
Y-200000D02*
D03*
X995000Y-140000D02*
D03*
X925000Y-200000D02*
D03*
X995000D02*
D03*
X925000Y-140000D02*
D03*
X495000Y-265000D02*
D03*
X425000Y-325000D02*
D03*
X495000D02*
D03*
X425000Y-265000D02*
D03*
X575000Y30000D02*
D03*
X500000Y-154004D02*
D03*
X415000Y-154922D02*
D03*
X290000Y-385000D02*
D03*
X360000Y-445000D02*
D03*
X290000D02*
D03*
X360000Y-385000D02*
D03*
X-965000Y-225000D02*
D03*
Y-155000D02*
D03*
X-515000Y-223024D02*
D03*
X-512651Y-150000D02*
D03*
X-375000D02*
D03*
Y-223024D02*
D03*
X-270000Y-220917D02*
D03*
X-185000Y-220000D02*
D03*
Y-150000D02*
D03*
X-270000D02*
D03*
X-445000D02*
D03*
Y-223024D02*
D03*
X-965000Y-45000D02*
D03*
Y55000D02*
D03*
X-570000Y30000D02*
D03*
X-495000Y35000D02*
D03*
X-495000Y120000D02*
D03*
X-415000D02*
D03*
X-455000Y194000D02*
D03*
X-375000D02*
D03*
X-40000Y-360000D02*
D03*
D27*
X-649500Y-375000D02*
D03*
X650000D02*
D03*
X-798Y-755000D02*
D03*
%TF.MD5,102cda06a796460854d79b5f737cabe5*%
M02*
